<?xml version="1.0" standalone="no"?>
<!DOCTYPE svg PUBLIC "-//W3C//DTD SVG 1.1//EN" "http://www.w3.org/Graphics/SVG/1.1/DTD/svg11.dtd" >
<svg xmlns="http://www.w3.org/2000/svg">
<metadata>Generated by IcoMoon</metadata>
<defs>
<font id="icomoon" horiz-adv-x="1024">
<font-face units-per-em="1024" ascent="960" descent="-64" />
<missing-glyph horiz-adv-x="1024" />
<glyph unicode="&#x20;" horiz-adv-x="512" d="" />
<glyph unicode="&#xe900;" glyph-name="map-icon" horiz-adv-x="755" d="M140.126 819.874c-129.347-123.958-102.4-328.758 59.284-592.842 86.232-129.347 161.684-237.137 177.853-237.137 16.168 5.389 91.621 102.4 177.853 220.968 247.916 355.705 161.684 695.242-177.853 695.242-86.232 0-194.021-37.726-237.137-86.232zM485.053 663.579c37.726-43.116 53.895-118.568 32.337-161.684-37.726-102.4-242.526-102.4-280.253 0-32.337 80.842 59.284 242.526 140.126 242.526 21.558 0 70.063-37.726 107.789-80.842z" />
<glyph unicode="&#xe901;" glyph-name="global" d="M512-36.324c-267.485 0-484.324 216.839-484.324 484.324s216.839 484.324 484.324 484.324c267.485 0 484.324-216.839 484.324-484.324v0c-0.315-267.359-216.967-484.010-484.295-484.324h-0.030zM512 904.649c-252.2 0-456.649-204.449-456.649-456.649s204.449-456.649 456.649-456.649c252.2 0 456.649 204.449 456.649 456.649v0c-0.299 252.080-204.569 456.35-456.62 456.649h-0.028zM512-36.324c-124.153 0-221.405 212.743-221.405 484.324s97.252 484.324 221.405 484.324 221.405-212.743 221.405-484.324-97.252-484.324-221.405-484.324zM512 904.649c-105.015 0-193.73-209.117-193.73-456.649s88.714-456.649 193.73-456.649 193.73 209.117 193.73 456.649-88.714 456.649-193.73 456.649zM498.162 918.486h27.676v-940.973h-27.676zM41.514 461.838h940.973v-27.676h-940.973zM104.476 697.081h815.049v-27.676h-815.049zM104.476 226.595h815.049v-27.676h-815.049z" />
<glyph unicode="&#xe902;" glyph-name="pin-1" d="M512 960c-188.208 0-341.334-153.126-341.334-341.334 0-56.5 14.126-112.52 40.98-162.208l281.688-509.458c3.75-6.792 10.896-11 18.666-11s14.916 4.208 18.666 11l281.792 509.626c26.75 49.52 40.876 105.542 40.876 162.042 0 188.206-153.126 341.332-341.334 341.332zM775.020 477.104l-263.020-475.688-262.916 475.5c-23.396 43.292-35.75 92.312-35.75 141.75 0 164.688 133.98 298.666 298.666 298.666s298.666-133.98 298.666-298.666c0-49.436-12.354-98.458-35.646-141.562zM512 789.334c-94.104 0-170.666-76.562-170.666-170.666 0-94.106 76.562-170.668 170.666-170.668s170.666 76.562 170.666 170.666c0 94.104-76.562 170.668-170.666 170.668zM512 490.666c-70.584 0-128 57.416-128 128s57.416 128 128 128 128-57.416 128-128c0-70.582-57.416-128-128-128z" />
<glyph unicode="&#xe903;" glyph-name="heart-2" d="M733.65 871.87c0 0 0 0 0 0-85.421 0.457-166.627-37.059-221.651-102.399-54.679 65.786-136.111 103.409-221.651 102.399-160.355 0-290.348-129.993-290.348-290.348 0-274.797 479.594-543.108 499.038-553.479 7.845-5.242 18.077-5.242 25.924 0 19.444 10.371 499.038 274.794 499.038 553.479 0 160.355-129.995 290.348-290.35 290.348zM511.999 79.891c-75.18 44.070-460.151 278.682-460.151 501.631 0 131.719 106.78 238.502 238.502 238.502 80.663 1.059 156.15-39.627 199.615-107.584 8.825-12.169 25.847-14.881 38.017-6.054 2.325 1.687 4.369 3.729 6.054 6.054 72.086 110.244 219.894 141.177 330.138 69.091 67.488-44.13 108.11-119.371 107.976-200.007 0.002-225.541-384.971-458.858-460.151-501.633z" />
<glyph unicode="&#xe904;" glyph-name="bell" d="M542 158v60h400v30c0 114.858-44.728 222.84-125.944 304.056-74.104 74.102-170.494 117.808-274.056 124.9v61.044h60v60h-180v-60h60v-61.044c-103.562-7.090-199.952-50.796-274.056-124.9-81.216-81.216-125.944-189.198-125.944-304.056v-30h400v-60h-482v-60h1024v60h-482zM143.204 278c15.322 190.042 174.876 340 368.796 340s353.474-149.958 368.796-340h-737.592z" />
<glyph unicode="&#xe905;" glyph-name="shopping-bag" d="M904 720h-121.892c-15.89 134.956-130.954 240-270.108 240s-254.218-105.044-270.108-240h-121.892c-22.092 0-40-17.908-40-40v-704c0-22.092 17.908-40 40-40h784c22.092 0 40 17.908 40 40v704c0 22.092-17.908 40-40 40zM512 880c94.968 0 174.038-69.31 189.318-160h-378.636c15.28 90.69 94.35 160 189.318 160zM864 16h-704v624h80v-120c0-22.092 17.908-40 40-40s40 17.908 40 40v120h384v-120c0-22.092 17.908-40 40-40s40 17.908 40 40v120h80z" />
<glyph unicode="&#xe906;" glyph-name="user-1" d="M511.999 446.68c-269.853 0-489.401-219.551-489.401-489.401 0-11.746 9.533-21.279 21.279-21.279s21.279 9.533 21.279 21.279c0 246.403 200.442 446.845 446.845 446.845s446.845-200.442 446.845-446.845c0-11.746 9.533-21.279 21.279-21.279s21.279 9.533 21.279 21.279c-0.002 269.895-219.553 489.401-489.405 489.401zM511.999 960c-129.033 0-234.061-104.987-234.061-234.061s105.031-234.061 234.061-234.061 234.061 104.987 234.061 234.061-105.029 234.061-234.061 234.061zM511.999 534.434c-105.583 0-191.505 85.922-191.505 191.505s85.922 191.505 191.505 191.505c105.583 0 191.505-85.922 191.505-191.505s-85.922-191.505-191.505-191.505z" />
<glyph unicode="&#xe907;" glyph-name="mail" d="M1014.98 756.558l-310.558-308.558 310.558-308.558c5.614 11.734 9.020 24.706 9.020 38.558v540c0 13.854-3.406 26.824-9.020 38.558zM934 808h-844c-13.854 0-26.824-3.406-38.558-9.020l396.926-394.926c35.096-35.096 92.168-35.096 127.264 0l396.926 394.926c-11.734 5.614-24.704 9.020-38.558 9.020zM9.020 756.558c-5.614-11.734-9.020-24.704-9.020-38.558v-540c0-13.854 3.406-26.826 9.020-38.558l310.558 308.558-310.558 308.558zM662 405.578l-43.946-43.946c-58.478-58.478-153.632-58.478-212.11 0l-43.944 43.946-310.558-308.558c11.734-5.614 24.704-9.020 38.558-9.020h844c13.854 0 26.824 3.406 38.558 9.020l-310.558 308.558z" />
<glyph unicode="&#xe908;" glyph-name="cancel" d="M568.571 447.997l443.713 443.715c15.622 15.622 15.622 40.95 0 56.57s-40.95 15.622-56.57 0l-443.715-443.715-443.713 443.715c-15.622 15.622-40.95 15.622-56.57 0s-15.622-40.95 0-56.57l443.713-443.713-443.713-443.715c-15.622-15.622-15.622-40.95 0-56.57 7.81-7.81 18.048-11.714 28.286-11.714s20.474 3.904 28.286 11.714l443.711 443.713 443.713-443.713c7.81-7.81 18.048-11.714 28.286-11.714s20.474 3.904 28.286 11.714c15.622 15.622 15.622 40.95 0 56.57l-443.713 443.713z" />
<glyph unicode="&#xe909;" glyph-name="menu" d="M981.333 406.219h-938.667c-23.552 0-42.667 19.115-42.667 42.667s19.115 42.667 42.667 42.667h938.667c23.552 0 42.667-19.115 42.667-42.667s-19.115-42.667-42.667-42.667zM981.333 733.333h-938.667c-23.552 0-42.667 19.115-42.667 42.667s19.115 42.667 42.667 42.667h938.667c23.552 0 42.667-19.115 42.667-42.667s-19.115-42.667-42.667-42.667zM981.333 79.115h-938.667c-23.552 0-42.667 19.115-42.667 42.667s19.115 42.667 42.667 42.667h938.667c23.552 0 42.667-19.115 42.667-42.667s-19.115-42.667-42.667-42.667z" />
<glyph unicode="&#xe90a;" d="M283.092 953.474c-8.84 8.54-22.929 8.293-31.469-0.547-8.329-8.625-8.329-22.297 0-30.92l473.85-473.894-473.894-473.85c-8.84-8.54-9.084-22.627-0.547-31.469 8.54-8.84 22.627-9.084 31.469-0.547 0.186 0.179 0.367 0.361 0.547 0.547l489.607 489.607c8.688 8.69 8.688 22.777 0 31.469l-489.563 489.605z" />
<glyph unicode="&#xe90b;" d="M267.335-63.75c-12.291-0.023-22.272 9.925-22.295 22.216-0.010 5.925 2.343 11.611 6.539 15.796l473.894 473.85-473.894 473.848c-8.702 8.702-8.702 22.81 0 31.513s22.81 8.702 31.513 0l489.607-489.607c8.688-8.69 8.688-22.777 0-31.469l-489.607-489.605c-4.173-4.187-9.844-6.543-15.756-6.543z" />
<glyph unicode="&#xe90c;" d="M756.693-64c-5.907-0.010-11.576 2.326-15.757 6.499l-489.62 489.618c-8.688 8.69-8.688 22.778 0 31.47l489.62 489.62c8.54 8.84 22.627 9.084 31.47 0.547 8.84-8.54 9.084-22.627 0.547-31.47-0.179-0.186-0.361-0.367-0.547-0.547l-473.863-473.863 473.907-473.863c8.703-8.68 8.719-22.771 0.040-31.474-4.185-4.194-9.871-6.547-15.796-6.537z" />
<glyph unicode="&#xe90d;" d="M756.693-64c-5.907-0.010-11.576 2.326-15.757 6.499l-489.62 489.618c-8.688 8.69-8.688 22.778 0 31.47l489.62 489.62c8.54 8.84 22.627 9.084 31.47 0.547 8.84-8.54 9.084-22.627 0.547-31.47-0.179-0.186-0.361-0.367-0.547-0.547l-473.863-473.863 473.907-473.863c8.703-8.68 8.719-22.771 0.040-31.474-4.185-4.194-9.871-6.547-15.796-6.537z" />
<glyph unicode="&#xe90e;" d="M1017.503 218.815l-489.883 489.883c-8.695 8.693-22.79 8.693-31.487 0l-489.883-489.883c-8.544-8.845-8.3-22.942 0.547-31.487 8.63-8.336 22.31-8.336 30.94 0l474.118 474.118 474.118-474.162c8.845-8.544 22.942-8.3 31.487 0.545 8.336 8.63 8.336 22.312 0 30.94l0.044 0.046z" />
<glyph unicode="&#xe90f;" d="M1001.738 180.782c-5.91-0.010-11.582 2.328-15.765 6.503l-474.118 474.162-474.118-474.162c-8.845-8.544-22.942-8.3-31.487 0.547-8.336 8.63-8.336 22.31 0 30.94l489.883 489.883c8.695 8.693 22.79 8.693 31.487 0l489.883-489.883c8.682-8.709 8.659-22.809-0.050-31.491-4.173-4.161-9.824-6.497-15.715-6.499z" />
<glyph unicode="&#xe910;" d="M985.685 708.472l-473.959-474.002-473.959 474.002c-8.842 8.542-22.935 8.295-31.476-0.547-8.331-8.627-8.331-22.302 0-30.927l489.719-489.719c8.692-8.69 22.782-8.69 31.476 0l489.719 489.719c8.842 8.542 9.086 22.632 0.547 31.476-8.542 8.842-22.632 9.086-31.476 0.547-0.186-0.179-0.367-0.361-0.547-0.547l-0.044-0.002z" />
<glyph unicode="&#xe911;" d="M511.727 180.733c-5.908-0.010-11.578 2.327-15.76 6.501l-489.719 489.719c-8.542 8.842-8.295 22.935 0.547 31.476 8.627 8.331 22.302 8.331 30.927 0l474.002-473.959 473.959 474.002c8.542 8.842 22.632 9.086 31.476 0.547 8.842-8.542 9.086-22.632 0.547-31.476-0.179-0.186-0.361-0.367-0.547-0.547l-489.716-489.719c-4.165-4.178-9.819-6.53-15.716-6.544z" />
<glyph unicode="&#xe912;" glyph-name="right-arrow-1" d="M1007.633 487.786l-369.803 369.811c-10.556 10.556-24.626 16.351-39.628 16.351-15.019 0-29.080-5.803-39.636-16.351l-33.575-33.584c-10.548-10.54-16.359-24.617-16.359-39.628 0-15.002 5.811-29.554 16.359-40.094l215.738-216.212h-685.408c-30.903 0-55.321-24.193-55.321-55.104v-47.478c0-30.911 24.418-57.543 55.321-57.543h687.856l-218.177-217.419c-10.548-10.556-16.359-24.251-16.359-39.261 0-14.994 5.811-28.888 16.359-39.436l33.575-33.475c10.556-10.556 24.617-16.309 39.636-16.309 15.002 0 29.071 5.828 39.628 16.384l369.803 369.803c10.581 10.59 16.401 24.726 16.359 39.753 0.033 15.077-5.778 29.221-16.367 39.794z" />
<glyph unicode="&#xe913;" glyph-name="paper-plane" d="M0.090 447.883c1.253-21.095 15.247-38.848 35.506-44.905l375.111-113.411 13.785-258.568c0.627-10.234 7.519-19.215 17.335-22.557 2.715-1.044 5.639-1.462 8.354-1.462 7.31 0 14.202 2.924 19.215 8.563l132.626 146.828 187.973-130.119c8.354-5.848 18.171-8.981 28.405-8.981 23.601 0 44.069 16.709 49.082 40.101l156.018 795.128c1.88 9.19-1.671 18.797-8.772 24.645-7.31 6.057-17.126 7.519-25.899 3.968l-958.665-390.149c-19.424-8.772-31.329-27.987-30.076-49.082zM472.112 95.12l-8.563 163.119 96.075-66.417-87.512-96.702zM817.565 75.278l-342.112 236.847 479.75 464.086-137.638-700.932zM902.571 796.678l-474.32-458.864-374.694 113.202 849.013 345.662z" />
<glyph unicode="&#xe914;" glyph-name="share" d="M812 296c-59.272 0-111.938-28.804-144.756-73.142l-282.54 144.39c4.74 16.104 7.296 33.134 7.296 50.752 0 23.862-4.678 46.648-13.148 67.506l296.12 177.916c33.040-38.78 82.208-63.422 137.028-63.422 99.252 0 180 80.748 180 180s-80.748 180-180 180c-99.252 0-180-80.748-180-180 0-22.94 4.322-44.886 12.18-65.080l-296.86-178.36c-33.016 37.636-81.438 61.44-135.32 61.44-99.252 0-180-80.748-180-180s80.748-180 180-180c60.244 0 113.664 29.752 146.354 75.332l281.72-143.97c-5.246-16.868-8.074-34.79-8.074-53.362 0-99.252 80.748-180 180-180s180 80.748 180 180c0 99.252-80.748 180-180 180zM812 900c66.168 0 120-53.832 120-120s-53.832-120-120-120-120 53.832-120 120 53.832 120 120 120zM212 298c-66.168 0-120 53.832-120 120s53.832 120 120 120 120-53.832 120-120-53.832-120-120-120zM812-4c-66.168 0-120 53.832-120 120s53.832 120 120 120 120-53.832 120-120-53.832-120-120-120z" />
<glyph unicode="&#xe915;" glyph-name="calendar-2" d="M892 880h-92v48c0 17.672-14.326 32-32 32s-32-14.328-32-32v-48h-448v48c0 17.672-14.326 32-32 32s-32-14.328-32-32v-48h-92c-72.786 0-132-59.214-132-132v-680c0-72.786 59.214-132 132-132h760c72.786 0 132 59.214 132 132v680c0 72.786-59.214 132-132 132zM132 816h92v-32c0-17.672 14.326-32 32-32s32 14.328 32 32v32h448v-32c0-17.672 14.326-32 32-32s32 14.328 32 32v32h92c37.496 0 68-30.504 68-68v-76h-896v76c0 37.496 30.504 68 68 68zM892 0h-760c-37.496 0-68 30.504-68 68v540h896v-540c0-37.496-30.504-68-68-68z" />
<glyph unicode="&#xe916;" glyph-name="comment-_3" d="M149.8 889.8c-55.6-6-100-44.8-114-99.4-3.6-14.4-3.8-24.4-3.8-244.4 0-221.8 0.2-229.8 4-244.8 6.2-24.6 16.2-41.8 35.8-61.2 13-12.8 21-19 32.2-24.4 16.4-8.2 36.2-13.6 49.6-13.6h8.4v-96c0-67 0.6-96 2.2-96 1.2 0 60.8 40.8 132.4 90.8 71.8 49.8 134 93 138.2 96l7.8 5.2h437l15.6 4.6c44.8 13 79.2 48 92.2 93.4 3.4 12.2 3.6 26 3.6 246s-0.2 233.8-3.6 246c-10.4 36.4-36 68.4-67.4 83.6-34 16.8 2.8 15.2-398 15.6-196.4 0.2-363.8-0.4-372.2-1.4zM885 829.8c20.8-7.8 36.6-23.4 45.4-45.2l4.6-11.6v-454l-4.6-11.6c-8.8-21.8-24.6-37.4-45.4-45.2-11-4.2-13-4.2-236-4.2h-225l-203-141.4-2 140.4-37 1c-24.2 0.8-39.4 2.2-44 4-19 7.4-33.8 21.2-42.8 40l-6.2 13v462l5.4 11.4c7.2 15.6 14.6 24.4 27.2 32.8 19.8 13.2-7.4 12.4 389.8 12.6l362.4 0.2 11.2-4.2zM288 664v-28h446v56h-446v-28zM288 544v-28h446v56h-446v-28zM288 424v-28h446v56h-446v-28z" />
<glyph unicode="&#xe917;" glyph-name="envelope" d="M46.4 819.2c-45.6-24-46.4-29.6-46.4-371.2 0-343.2 0.8-347.2 48-372 35.2-18.4 892.8-18.4 928 0 47.2 24.8 48 28.8 48 372s-0.8 347.2-48 372c-34.4 17.6-896.8 17.6-929.6-0.8zM916 760.8c-17.6-17.6-111.2-104-208-192-130.4-119.2-180.8-160.8-196-160.8s-65.6 41.6-196 160.8c-96.8 88-190.4 174.4-208 192l-32 31.2h872l-32-31.2zM217.6 600.8l164.8-151.2-166.4-152.8c-92-84-168.8-152.8-172-152.8-2.4 0-4 136.8-4 304s2.4 304 6.4 304c3.2 0 80-68 171.2-151.2zM984 448c0-167.2-1.6-304-4-304-3.2 0-80 68.8-172 152.8l-166.4 152.8 164.8 151.2c91.2 83.2 168 151.2 171.2 151.2 4 0 6.4-136.8 6.4-304zM448 391.2c43.2-35.2 84.8-35.2 128.8 0 27.2 22.4 33.6 24.8 45.6 15.2 48-36.8 321.6-292 321.6-299.2 0-1.6-194.4-3.2-432-3.2s-432 1.6-432 3.2c0 8.8 324 308.8 332.8 308.8 2.4 0 18.4-11.2 35.2-24.8z" />
<glyph unicode="&#xe918;" glyph-name="iconmonstr-whatsapp-1" d="M2.432-64l71.979 262.955c-44.416 76.971-67.755 164.224-67.712 253.696 0.128 279.723 227.755 507.349 507.435 507.349 135.723-0.043 263.125-52.907 358.955-148.821 95.787-95.915 148.523-223.403 148.48-358.997-0.128-279.765-227.755-507.392-507.435-507.392-84.907 0.043-168.576 21.333-242.688 61.781l-269.013-70.571zM283.904 98.432c71.509-42.453 139.776-67.883 230.059-67.925 232.448 0 421.803 189.184 421.931 421.76 0.085 233.045-188.373 421.973-421.589 422.059-232.619 0-421.845-189.184-421.931-421.717-0.043-94.933 27.776-166.016 74.496-240.384l-42.624-155.648 159.659 41.856zM769.749 331.563c-3.157 5.291-11.605 8.448-24.32 14.805-12.672 6.357-75.008 37.035-86.656 41.259-11.605 4.224-20.053 6.357-28.544-6.357-8.448-12.672-32.768-41.259-40.149-49.707s-14.805-9.515-27.477-3.157c-12.672 6.357-53.547 19.712-101.973 62.933-37.675 33.621-63.147 75.136-70.528 87.851-7.381 12.672-0.768 19.541 5.547 25.856 5.717 5.675 12.672 14.805 19.029 22.229 6.443 7.339 8.533 12.629 12.8 21.12 4.224 8.448 2.133 15.872-1.067 22.229-3.2 6.315-28.544 68.736-39.083 94.123-10.325 24.704-20.779 21.376-28.544 21.76l-24.32 0.427c-8.448 0-22.187-3.157-33.792-15.872s-44.373-43.349-44.373-105.771 45.44-122.709 51.755-131.157c6.357-8.448 89.387-136.533 216.576-191.445 30.251-13.056 53.888-20.864 72.277-26.709 30.379-9.643 58.027-8.277 79.872-5.035 24.363 3.627 75.008 30.677 85.589 60.288 10.581 29.653 10.581 55.040 7.381 60.331z" />
<glyph unicode="&#xe919;" glyph-name="telephone" d="M183.2 957c-16.2-4.2-32.8-13.4-49.8-28-18.8-16.2-86.2-84.8-97.2-99-44.6-57-45.4-145.6-2.2-260 52.6-139.8 151.2-281.4 276-396.4 172-158.6 402.4-261.2 521-232.4 17.6 4.2 46.8 17.8 60.2 28 13.6 10.2 104 103 112.4 115.2 15.6 22.6 21.6 52.8 15.6 78.4-6.8 28.6-9 31.2-96 118.4-87.8 87.8-90.6 90-119.6 96-23 4.8-46.4 0.6-69-12.4-5.2-3.2-30-25.8-55-50.6l-45.4-44.8-14.6 7.6c-35.8 18.6-62.2 36.4-101.6 68.8-40.4 33.2-96.8 91.4-128 132.2-22.6 29.6-55.8 84.2-56 91.6 0 1.4 15.6 17.8 34.6 36.4 40 39 55.8 57.2 64.8 74.4 11.2 21.8 13.4 49.4 5.6 72.2-7.8 23.2-15.4 32-91.8 108.6-75.6 75.6-87.2 85.6-108.8 93-15 5.4-39.8 6.6-55.2 2.8zM229.6 900.8c5.6-3.2 37.6-33.4 80.6-76.6 77.8-78 80.8-81.6 80.6-102.2 0-18.2-4.8-24.6-57-76.8-26.4-26.2-49.4-50.4-51-53.8-2.4-4.2-3-10-2.4-19.8 0.6-12 2.2-16.6 14.4-40.8 27.6-54.8 64-103 124.2-164.6 59.8-61.2 119.4-106.8 180.8-138.4 21.8-11.2 26-12.8 36-12.6 6.8 0 14 1.4 18.2 3.6 3.8 2 28.6 25.2 55 51.4 34 33.8 50.6 48.8 57 51.6 12 5.4 27.6 5.4 38.6 0 12-6 153.4-147.2 159.6-159.6 3.4-6.6 4.8-12.6 4.8-21.2 0-20.6-4.2-26.2-61-83.2-56.2-56.4-61.4-60.2-91.4-67-29-6.4-77.6-1.2-126.8 13.4-75 22.2-175.8 75.4-258.8 136.6-159.8 117.6-297 297.4-354 463.6-27.2 79-30.2 135.6-9.4 177.6 6.4 13.4 12.4 20.2 54 62.4 25.6 26 50.2 49.6 54.4 52.6 18 12.4 36.4 13.8 53.6 3.8z" />
<glyph unicode="&#xe91a;" glyph-name="next" d="M590 812.4c-9.4-10.4-18.2-20.6-19.4-22.6-2.2-3 17.8-21.4 171.4-157l173.8-153.8-915.8-1v-60l915.8-1-173.8-153.8c-153.6-135.6-173.6-154-171.4-157 1.2-2 10-12.2 19.4-22.6 16.4-18.6 17-19.2 21-16 2.4 2 96.2 84.8 208.6 184.2l204.4 180.8v30.8l-204.4 180.8c-112.4 99.4-206.2 182.2-208.6 184.2-4 3.2-4.6 2.6-21-16z" />
<glyph unicode="&#xe91b;" glyph-name="loupe" d="M1011.488 8.835l-291.197 291.197c56.405 69.673 90.367 158.206 90.367 254.632 0 223.486-181.844 405.33-405.33 405.33s-405.328-181.842-405.328-405.328 181.844-405.33 405.33-405.33c96.425 0 184.958 33.962 254.632 90.367l291.197-291.197c8.32-8.32 19.242-12.502 30.166-12.502s21.846 4.182 30.166 12.502c16.682 16.682 16.682 43.648-0.002 60.329zM405.33 234.669c-176.468 0-319.997 143.529-319.997 319.997s143.529 319.997 319.997 319.997 319.997-143.529 319.997-319.997-143.531-319.997-319.997-319.997z" />
<glyph unicode="&#xe91c;" glyph-name="loupe1" d="M1011.488 8.835l-291.197 291.197c56.405 69.673 90.367 158.206 90.367 254.632 0 223.486-181.844 405.33-405.33 405.33s-405.328-181.842-405.328-405.328 181.844-405.33 405.33-405.33c96.425 0 184.958 33.962 254.632 90.367l291.197-291.197c8.32-8.32 19.242-12.502 30.166-12.502s21.846 4.182 30.166 12.502c16.682 16.682 16.682 43.648-0.002 60.329zM405.33 234.669c-176.468 0-319.997 143.529-319.997 319.997s143.529 319.997 319.997 319.997 319.997-143.529 319.997-319.997-143.531-319.997-319.997-319.997z" />
<glyph unicode="&#xe91d;" glyph-name="global1" d="M512-36.324c-267.485 0-484.324 216.839-484.324 484.324s216.839 484.324 484.324 484.324c267.485 0 484.324-216.839 484.324-484.324v0c-0.315-267.359-216.967-484.010-484.295-484.324h-0.030zM512 904.649c-252.2 0-456.649-204.449-456.649-456.649s204.449-456.649 456.649-456.649c252.2 0 456.649 204.449 456.649 456.649v0c-0.299 252.080-204.569 456.35-456.62 456.649h-0.028zM512-36.324c-124.153 0-221.405 212.743-221.405 484.324s97.252 484.324 221.405 484.324 221.405-212.743 221.405-484.324-97.252-484.324-221.405-484.324zM512 904.649c-105.015 0-193.73-209.117-193.73-456.649s88.714-456.649 193.73-456.649 193.73 209.117 193.73 456.649-88.714 456.649-193.73 456.649zM498.162 918.486h27.676v-940.973h-27.676zM41.514 461.838h940.973v-27.676h-940.973zM104.476 697.081h815.049v-27.676h-815.049zM104.476 226.595h815.049v-27.676h-815.049z" />
<glyph unicode="&#xe91e;" glyph-name="pin-11" d="M512 960c-188.208 0-341.334-153.126-341.334-341.334 0-56.5 14.126-112.52 40.98-162.208l281.688-509.458c3.75-6.792 10.896-11 18.666-11s14.916 4.208 18.666 11l281.792 509.626c26.75 49.52 40.876 105.542 40.876 162.042 0 188.206-153.126 341.332-341.334 341.332zM775.020 477.104l-263.020-475.688-262.916 475.5c-23.396 43.292-35.75 92.312-35.75 141.75 0 164.688 133.98 298.666 298.666 298.666s298.666-133.98 298.666-298.666c0-49.436-12.354-98.458-35.646-141.562zM512 789.334c-94.104 0-170.666-76.562-170.666-170.666 0-94.106 76.562-170.668 170.666-170.668s170.666 76.562 170.666 170.666c0 94.104-76.562 170.668-170.666 170.668zM512 490.666c-70.584 0-128 57.416-128 128s57.416 128 128 128 128-57.416 128-128c0-70.582-57.416-128-128-128z" />
<glyph unicode="&#xe91f;" glyph-name="heart-21" d="M733.65 871.87c0 0 0 0 0 0-85.421 0.457-166.627-37.059-221.651-102.399-54.679 65.786-136.111 103.409-221.651 102.399-160.355 0-290.348-129.993-290.348-290.348 0-274.797 479.594-543.108 499.038-553.479 7.845-5.242 18.077-5.242 25.924 0 19.444 10.371 499.038 274.794 499.038 553.479 0 160.355-129.995 290.348-290.35 290.348zM511.999 79.891c-75.18 44.070-460.151 278.682-460.151 501.631 0 131.719 106.78 238.502 238.502 238.502 80.663 1.059 156.15-39.627 199.615-107.584 8.825-12.169 25.847-14.881 38.017-6.054 2.325 1.687 4.369 3.729 6.054 6.054 72.086 110.244 219.894 141.177 330.138 69.091 67.488-44.13 108.11-119.371 107.976-200.007 0.002-225.541-384.971-458.858-460.151-501.633z" />
<glyph unicode="&#xe920;" glyph-name="bell1" d="M542 158v60h400v30c0 114.858-44.728 222.84-125.944 304.056-74.104 74.102-170.494 117.808-274.056 124.9v61.044h60v60h-180v-60h60v-61.044c-103.562-7.090-199.952-50.796-274.056-124.9-81.216-81.216-125.944-189.198-125.944-304.056v-30h400v-60h-482v-60h1024v60h-482zM143.204 278c15.322 190.042 174.876 340 368.796 340s353.474-149.958 368.796-340h-737.592z" />
<glyph unicode="&#xe921;" glyph-name="shopping-bag1" d="M904 720h-121.892c-15.89 134.956-130.954 240-270.108 240s-254.218-105.044-270.108-240h-121.892c-22.092 0-40-17.908-40-40v-704c0-22.092 17.908-40 40-40h784c22.092 0 40 17.908 40 40v704c0 22.092-17.908 40-40 40zM512 880c94.968 0 174.038-69.31 189.318-160h-378.636c15.28 90.69 94.35 160 189.318 160zM864 16h-704v624h80v-120c0-22.092 17.908-40 40-40s40 17.908 40 40v120h384v-120c0-22.092 17.908-40 40-40s40 17.908 40 40v120h80z" />
<glyph unicode="&#xe922;" glyph-name="user-11" d="M511.999 446.68c-269.853 0-489.401-219.551-489.401-489.401 0-11.746 9.533-21.279 21.279-21.279s21.279 9.533 21.279 21.279c0 246.403 200.442 446.845 446.845 446.845s446.845-200.442 446.845-446.845c0-11.746 9.533-21.279 21.279-21.279s21.279 9.533 21.279 21.279c-0.002 269.895-219.553 489.401-489.405 489.401zM511.999 960c-129.033 0-234.061-104.987-234.061-234.061s105.031-234.061 234.061-234.061 234.061 104.987 234.061 234.061-105.029 234.061-234.061 234.061zM511.999 534.434c-105.583 0-191.505 85.922-191.505 191.505s85.922 191.505 191.505 191.505c105.583 0 191.505-85.922 191.505-191.505s-85.922-191.505-191.505-191.505z" />
<glyph unicode="&#xe923;" glyph-name="mail1" d="M1014.98 756.558l-310.558-308.558 310.558-308.558c5.614 11.734 9.020 24.706 9.020 38.558v540c0 13.854-3.406 26.824-9.020 38.558zM934 808h-844c-13.854 0-26.824-3.406-38.558-9.020l396.926-394.926c35.096-35.096 92.168-35.096 127.264 0l396.926 394.926c-11.734 5.614-24.704 9.020-38.558 9.020zM9.020 756.558c-5.614-11.734-9.020-24.704-9.020-38.558v-540c0-13.854 3.406-26.826 9.020-38.558l310.558 308.558-310.558 308.558zM662 405.578l-43.946-43.946c-58.478-58.478-153.632-58.478-212.11 0l-43.944 43.946-310.558-308.558c11.734-5.614 24.704-9.020 38.558-9.020h844c13.854 0 26.824 3.406 38.558 9.020l-310.558 308.558z" />
<glyph unicode="&#xe924;" glyph-name="cancel1" d="M568.571 447.997l443.713 443.715c15.622 15.622 15.622 40.95 0 56.57s-40.95 15.622-56.57 0l-443.715-443.715-443.713 443.715c-15.622 15.622-40.95 15.622-56.57 0s-15.622-40.95 0-56.57l443.713-443.713-443.713-443.715c-15.622-15.622-15.622-40.95 0-56.57 7.81-7.81 18.048-11.714 28.286-11.714s20.474 3.904 28.286 11.714l443.711 443.713 443.713-443.713c7.81-7.81 18.048-11.714 28.286-11.714s20.474 3.904 28.286 11.714c15.622 15.622 15.622 40.95 0 56.57l-443.713 443.713z" />
<glyph unicode="&#xe925;" glyph-name="menu1" d="M981.333 406.219h-938.667c-23.552 0-42.667 19.115-42.667 42.667s19.115 42.667 42.667 42.667h938.667c23.552 0 42.667-19.115 42.667-42.667s-19.115-42.667-42.667-42.667zM981.333 733.333h-938.667c-23.552 0-42.667 19.115-42.667 42.667s19.115 42.667 42.667 42.667h938.667c23.552 0 42.667-19.115 42.667-42.667s-19.115-42.667-42.667-42.667zM981.333 79.115h-938.667c-23.552 0-42.667 19.115-42.667 42.667s19.115 42.667 42.667 42.667h938.667c23.552 0 42.667-19.115 42.667-42.667s-19.115-42.667-42.667-42.667z" />
<glyph unicode="&#xe926;" glyph-name="uniE926" d="M283.092 953.474c-8.84 8.54-22.929 8.293-31.469-0.547-8.329-8.625-8.329-22.297 0-30.92l473.85-473.894-473.894-473.85c-8.84-8.54-9.084-22.627-0.547-31.469 8.54-8.84 22.627-9.084 31.469-0.547 0.186 0.179 0.367 0.361 0.547 0.547l489.607 489.607c8.688 8.69 8.688 22.777 0 31.469l-489.563 489.605z" />
<glyph unicode="&#xe927;" glyph-name="uniE927" d="M267.335-63.75c-12.291-0.023-22.272 9.925-22.295 22.216-0.010 5.925 2.343 11.611 6.539 15.796l473.894 473.85-473.894 473.848c-8.702 8.702-8.702 22.81 0 31.513s22.81 8.702 31.513 0l489.607-489.607c8.688-8.69 8.688-22.777 0-31.469l-489.607-489.605c-4.173-4.187-9.844-6.543-15.756-6.543z" />
<glyph unicode="&#xe928;" glyph-name="uniE928" d="M756.693-64c-5.907-0.010-11.576 2.326-15.757 6.499l-489.62 489.618c-8.688 8.69-8.688 22.778 0 31.47l489.62 489.62c8.54 8.84 22.627 9.084 31.47 0.547 8.84-8.54 9.084-22.627 0.547-31.47-0.179-0.186-0.361-0.367-0.547-0.547l-473.863-473.863 473.907-473.863c8.703-8.68 8.719-22.771 0.040-31.474-4.185-4.194-9.871-6.547-15.796-6.537z" />
<glyph unicode="&#xe929;" glyph-name="uniE929" d="M756.693-64c-5.907-0.010-11.576 2.326-15.757 6.499l-489.62 489.618c-8.688 8.69-8.688 22.778 0 31.47l489.62 489.62c8.54 8.84 22.627 9.084 31.47 0.547 8.84-8.54 9.084-22.627 0.547-31.47-0.179-0.186-0.361-0.367-0.547-0.547l-473.863-473.863 473.907-473.863c8.703-8.68 8.719-22.771 0.040-31.474-4.185-4.194-9.871-6.547-15.796-6.537z" />
<glyph unicode="&#xe92a;" glyph-name="uniE92A" d="M1017.503 218.815l-489.883 489.883c-8.695 8.693-22.79 8.693-31.487 0l-489.883-489.883c-8.544-8.845-8.3-22.942 0.547-31.487 8.63-8.336 22.31-8.336 30.94 0l474.118 474.118 474.118-474.162c8.845-8.544 22.942-8.3 31.487 0.545 8.336 8.63 8.336 22.312 0 30.94l0.044 0.046z" />
<glyph unicode="&#xe92b;" glyph-name="uniE92B" d="M1001.738 180.782c-5.91-0.010-11.582 2.328-15.765 6.503l-474.118 474.162-474.118-474.162c-8.845-8.544-22.942-8.3-31.487 0.547-8.336 8.63-8.336 22.31 0 30.94l489.883 489.883c8.695 8.693 22.79 8.693 31.487 0l489.883-489.883c8.682-8.709 8.659-22.809-0.050-31.491-4.173-4.161-9.824-6.497-15.715-6.499z" />
<glyph unicode="&#xe92c;" glyph-name="uniE92C" d="M985.685 708.472l-473.959-474.002-473.959 474.002c-8.842 8.542-22.935 8.295-31.476-0.547-8.331-8.627-8.331-22.302 0-30.927l489.719-489.719c8.692-8.69 22.782-8.69 31.476 0l489.719 489.719c8.842 8.542 9.086 22.632 0.547 31.476-8.542 8.842-22.632 9.086-31.476 0.547-0.186-0.179-0.367-0.361-0.547-0.547l-0.044-0.002z" />
<glyph unicode="&#xe92d;" glyph-name="uniE92D" d="M511.727 180.733c-5.908-0.010-11.578 2.327-15.76 6.501l-489.719 489.719c-8.542 8.842-8.295 22.935 0.547 31.476 8.627 8.331 22.302 8.331 30.927 0l474.002-473.959 473.959 474.002c8.542 8.842 22.632 9.086 31.476 0.547 8.842-8.542 9.086-22.632 0.547-31.476-0.179-0.186-0.361-0.367-0.547-0.547l-489.716-489.719c-4.165-4.178-9.819-6.53-15.716-6.544z" />
<glyph unicode="&#xe92e;" glyph-name="right-arrow-11" d="M1007.633 487.786l-369.803 369.811c-10.556 10.556-24.626 16.351-39.628 16.351-15.019 0-29.080-5.803-39.636-16.351l-33.575-33.584c-10.548-10.54-16.359-24.617-16.359-39.628 0-15.002 5.811-29.554 16.359-40.094l215.738-216.212h-685.408c-30.903 0-55.321-24.193-55.321-55.104v-47.478c0-30.911 24.418-57.543 55.321-57.543h687.856l-218.177-217.419c-10.548-10.556-16.359-24.251-16.359-39.261 0-14.994 5.811-28.888 16.359-39.436l33.575-33.475c10.556-10.556 24.617-16.309 39.636-16.309 15.002 0 29.071 5.828 39.628 16.384l369.803 369.803c10.581 10.59 16.401 24.726 16.359 39.753 0.033 15.077-5.778 29.221-16.367 39.794z" />
<glyph unicode="&#xe92f;" glyph-name="paper-plane1" d="M0.090 447.883c1.253-21.095 15.247-38.848 35.506-44.905l375.111-113.411 13.785-258.568c0.627-10.234 7.519-19.215 17.335-22.557 2.715-1.044 5.639-1.462 8.354-1.462 7.31 0 14.202 2.924 19.215 8.563l132.626 146.828 187.973-130.119c8.354-5.848 18.171-8.981 28.405-8.981 23.601 0 44.069 16.709 49.082 40.101l156.018 795.128c1.88 9.19-1.671 18.797-8.772 24.645-7.31 6.057-17.126 7.519-25.899 3.968l-958.665-390.149c-19.424-8.772-31.329-27.987-30.076-49.082zM472.112 95.12l-8.563 163.119 96.075-66.417-87.512-96.702zM817.565 75.278l-342.112 236.847 479.75 464.086-137.638-700.932zM902.571 796.678l-474.32-458.864-374.694 113.202 849.013 345.662z" />
<glyph unicode="&#xe930;" glyph-name="share1" d="M812 296c-59.272 0-111.938-28.804-144.756-73.142l-282.54 144.39c4.74 16.104 7.296 33.134 7.296 50.752 0 23.862-4.678 46.648-13.148 67.506l296.12 177.916c33.040-38.78 82.208-63.422 137.028-63.422 99.252 0 180 80.748 180 180s-80.748 180-180 180c-99.252 0-180-80.748-180-180 0-22.94 4.322-44.886 12.18-65.080l-296.86-178.36c-33.016 37.636-81.438 61.44-135.32 61.44-99.252 0-180-80.748-180-180s80.748-180 180-180c60.244 0 113.664 29.752 146.354 75.332l281.72-143.97c-5.246-16.868-8.074-34.79-8.074-53.362 0-99.252 80.748-180 180-180s180 80.748 180 180c0 99.252-80.748 180-180 180zM812 900c66.168 0 120-53.832 120-120s-53.832-120-120-120-120 53.832-120 120 53.832 120 120 120zM212 298c-66.168 0-120 53.832-120 120s53.832 120 120 120 120-53.832 120-120-53.832-120-120-120zM812-4c-66.168 0-120 53.832-120 120s53.832 120 120 120 120-53.832 120-120-53.832-120-120-120z" />
<glyph unicode="&#xe931;" glyph-name="calendar-21" d="M892 880h-92v48c0 17.672-14.326 32-32 32s-32-14.328-32-32v-48h-448v48c0 17.672-14.326 32-32 32s-32-14.328-32-32v-48h-92c-72.786 0-132-59.214-132-132v-680c0-72.786 59.214-132 132-132h760c72.786 0 132 59.214 132 132v680c0 72.786-59.214 132-132 132zM132 816h92v-32c0-17.672 14.326-32 32-32s32 14.328 32 32v32h448v-32c0-17.672 14.326-32 32-32s32 14.328 32 32v32h92c37.496 0 68-30.504 68-68v-76h-896v76c0 37.496 30.504 68 68 68zM892 0h-760c-37.496 0-68 30.504-68 68v540h896v-540c0-37.496-30.504-68-68-68z" />
<glyph unicode="&#xe932;" glyph-name="comment-_31" d="M149.8 889.8c-55.6-6-100-44.8-114-99.4-3.6-14.4-3.8-24.4-3.8-244.4 0-221.8 0.2-229.8 4-244.8 6.2-24.6 16.2-41.8 35.8-61.2 13-12.8 21-19 32.2-24.4 16.4-8.2 36.2-13.6 49.6-13.6h8.4v-96c0-67 0.6-96 2.2-96 1.2 0 60.8 40.8 132.4 90.8 71.8 49.8 134 93 138.2 96l7.8 5.2h437l15.6 4.6c44.8 13 79.2 48 92.2 93.4 3.4 12.2 3.6 26 3.6 246s-0.2 233.8-3.6 246c-10.4 36.4-36 68.4-67.4 83.6-34 16.8 2.8 15.2-398 15.6-196.4 0.2-363.8-0.4-372.2-1.4zM885 829.8c20.8-7.8 36.6-23.4 45.4-45.2l4.6-11.6v-454l-4.6-11.6c-8.8-21.8-24.6-37.4-45.4-45.2-11-4.2-13-4.2-236-4.2h-225l-203-141.4-2 140.4-37 1c-24.2 0.8-39.4 2.2-44 4-19 7.4-33.8 21.2-42.8 40l-6.2 13v462l5.4 11.4c7.2 15.6 14.6 24.4 27.2 32.8 19.8 13.2-7.4 12.4 389.8 12.6l362.4 0.2 11.2-4.2zM288 664v-28h446v56h-446v-28zM288 544v-28h446v56h-446v-28zM288 424v-28h446v56h-446v-28z" />
<glyph unicode="&#xe933;" glyph-name="envelope1" d="M72.2 828.8c-33.8-9-60.2-36-69.2-70.2-4.6-17.2-4.6-604 0-621.2 9-34.6 35.6-61.4 70-70.4 10.4-2.6 61.8-3 439-3 466 0 436.8-0.8 460.4 11.2 14.2 7.2 31.8 24.6 39.4 38.6 13 24.4 12.2 5 12.2 334.2 0 262.2-0.4 300.6-3 311-9 34.4-35.8 61-70.4 70-17 4.4-861.8 4.2-878.4-0.2zM937.4 766.4c1.4-0.8-77.6-70.8-211-186.2-205.6-178.4-213.4-184.8-217.8-182-2.4 1.6-99 84.8-214.4 184.8-128.8 111.8-208.8 182.6-207.4 183.4 3 2 847.4 2 850.6 0zM500.6 322.2c7.6-3.2 21.4-2 27.8 2.4 2.6 1.6 100.6 86.2 218.2 188.2l213.4 185-0.4-274.8c-0.6-274-0.6-274.8-4.8-280.2-2.2-3-6.6-7.4-9.6-9.6l-5.4-4.2h-855.6l-5.4 4.2c-3 2.2-7.4 6.6-9.6 9.6-4.2 5.4-4.2 6.2-4.8 280.4l-0.4 274.8 215-186.6c118.4-102.4 218-187.6 221.6-189.2z" />
<glyph unicode="&#xe934;" glyph-name="iconmonstr-whatsapp-11" d="M2.432-64l71.979 262.955c-44.416 76.971-67.755 164.224-67.712 253.696 0.128 279.723 227.755 507.349 507.435 507.349 135.723-0.043 263.125-52.907 358.955-148.821 95.787-95.915 148.523-223.403 148.48-358.997-0.128-279.765-227.755-507.392-507.435-507.392-84.907 0.043-168.576 21.333-242.688 61.781l-269.013-70.571zM283.904 98.432c71.509-42.453 139.776-67.883 230.059-67.925 232.448 0 421.803 189.184 421.931 421.76 0.085 233.045-188.373 421.973-421.589 422.059-232.619 0-421.845-189.184-421.931-421.717-0.043-94.933 27.776-166.016 74.496-240.384l-42.624-155.648 159.659 41.856zM769.749 331.563c-3.157 5.291-11.605 8.448-24.32 14.805-12.672 6.357-75.008 37.035-86.656 41.259-11.605 4.224-20.053 6.357-28.544-6.357-8.448-12.672-32.768-41.259-40.149-49.707s-14.805-9.515-27.477-3.157c-12.672 6.357-53.547 19.712-101.973 62.933-37.675 33.621-63.147 75.136-70.528 87.851-7.381 12.672-0.768 19.541 5.547 25.856 5.717 5.675 12.672 14.805 19.029 22.229 6.443 7.339 8.533 12.629 12.8 21.12 4.224 8.448 2.133 15.872-1.067 22.229-3.2 6.315-28.544 68.736-39.083 94.123-10.325 24.704-20.779 21.376-28.544 21.76l-24.32 0.427c-8.448 0-22.187-3.157-33.792-15.872s-44.373-43.349-44.373-105.771 45.44-122.709 51.755-131.157c6.357-8.448 89.387-136.533 216.576-191.445 30.251-13.056 53.888-20.864 72.277-26.709 30.379-9.643 58.027-8.277 79.872-5.035 24.363 3.627 75.008 30.677 85.589 60.288 10.581 29.653 10.581 55.040 7.381 60.331z" />
<glyph unicode="&#xe935;" glyph-name="telephone1" d="M183.2 957c-16.2-4.2-32.8-13.4-49.8-28-18.8-16.2-86.2-84.8-97.2-99-44.6-57-45.4-145.6-2.2-260 52.6-139.8 151.2-281.4 276-396.4 172-158.6 402.4-261.2 521-232.4 17.6 4.2 46.8 17.8 60.2 28 13.6 10.2 104 103 112.4 115.2 15.6 22.6 21.6 52.8 15.6 78.4-6.8 28.6-9 31.2-96 118.4-87.8 87.8-90.6 90-119.6 96-23 4.8-46.4 0.6-69-12.4-5.2-3.2-30-25.8-55-50.6l-45.4-44.8-14.6 7.6c-35.8 18.6-62.2 36.4-101.6 68.8-40.4 33.2-96.8 91.4-128 132.2-22.6 29.6-55.8 84.2-56 91.6 0 1.4 15.6 17.8 34.6 36.4 40 39 55.8 57.2 64.8 74.4 11.2 21.8 13.4 49.4 5.6 72.2-7.8 23.2-15.4 32-91.8 108.6-75.6 75.6-87.2 85.6-108.8 93-15 5.4-39.8 6.6-55.2 2.8zM229.6 900.8c5.6-3.2 37.6-33.4 80.6-76.6 77.8-78 80.8-81.6 80.6-102.2 0-18.2-4.8-24.6-57-76.8-26.4-26.2-49.4-50.4-51-53.8-2.4-4.2-3-10-2.4-19.8 0.6-12 2.2-16.6 14.4-40.8 27.6-54.8 64-103 124.2-164.6 59.8-61.2 119.4-106.8 180.8-138.4 21.8-11.2 26-12.8 36-12.6 6.8 0 14 1.4 18.2 3.6 3.8 2 28.6 25.2 55 51.4 34 33.8 50.6 48.8 57 51.6 12 5.4 27.6 5.4 38.6 0 12-6 153.4-147.2 159.6-159.6 3.4-6.6 4.8-12.6 4.8-21.2 0-20.6-4.2-26.2-61-83.2-56.2-56.4-61.4-60.2-91.4-67-29-6.4-77.6-1.2-126.8 13.4-75 22.2-175.8 75.4-258.8 136.6-159.8 117.6-297 297.4-354 463.6-27.2 79-30.2 135.6-9.4 177.6 6.4 13.4 12.4 20.2 54 62.4 25.6 26 50.2 49.6 54.4 52.6 18 12.4 36.4 13.8 53.6 3.8z" />
<glyph unicode="&#xe936;" glyph-name="next1" d="M590 812.4c-9.4-10.4-18.2-20.6-19.4-22.6-2.2-3 17.8-21.4 171.4-157l173.8-153.8-915.8-1v-60l915.8-1-173.8-153.8c-153.6-135.6-173.6-154-171.4-157 1.2-2 10-12.2 19.4-22.6 16.4-18.6 17-19.2 21-16 2.4 2 96.2 84.8 208.6 184.2l204.4 180.8v30.8l-204.4 180.8c-112.4 99.4-206.2 182.2-208.6 184.2-4 3.2-4.6 2.6-21-16z" />
<glyph unicode="&#xe937;" glyph-name="pencil" d="M864 960c88.364 0 160-71.634 160-160 0-36.020-11.91-69.258-32-96l-64-64-224 224 64 64c26.742 20.090 59.978 32 96 32zM64 224l-64-288 288 64 592 592-224 224-592-592zM715.578 596.422l-448-448-55.156 55.156 448 448 55.156-55.156z" />
<glyph unicode="&#xe938;" glyph-name="user" d="M234.382 863.061c-87.381-29.127-139.264-99.214-139.264-187.051 0-79.189 40.96-142.905 112.412-176.583 76.004-35.499 177.493-13.198 228.466 50.972 81.465 100.58 49.607 245.76-65.991 300.828-26.852 12.743-36.409 15.019-74.183 16.384-27.762 0.91-49.607-0.91-61.44-4.551zM673.564 858.965c-54.613-19.115-96.484-58.709-118.784-112.868-8.192-20.025-10.468-34.133-10.468-70.542-0.455-41.87 0.455-47.787 14.108-76.004 26.852-57.344 64.626-91.477 119.239-108.772 124.245-38.684 251.221 53.248 251.221 182.044 0 81.010-40.505 145.18-113.323 179.314-41.87 19.57-97.849 22.3-141.995 6.827zM214.812 436.622c-96.028-25.941-170.667-97.394-201.614-193.422-8.192-26.396-10.468-45.511-12.288-112.412l-1.82-80.555 23.211-23.211h266.695c263.964 0 266.24 0 275.797 9.557 9.102 9.102 9.557 13.198 7.737 96.484-1.365 80.555-2.731 90.112-13.653 120.604-30.037 83.285-91.932 145.18-176.583 176.128-46.876 17.294-118.784 20.025-167.481 6.827zM671.289 438.898c-15.019-3.186-35.499-9.557-45.511-13.653-27.307-11.378-75.093-43.691-75.093-50.517 0-3.186 8.192-17.294 17.749-31.403 40.96-58.709 55.068-117.874 55.068-234.382v-81.92h378.197l10.923 11.378c10.923 10.468 11.378 12.743 11.378 76.914 0 79.189-7.737 123.79-29.127 167.936-57.344 118.329-194.332 184.32-323.584 155.648z" />
<glyph unicode="&#xe939;" glyph-name="images-_1" horiz-adv-x="853" d="M358.816 910.049c-122.797-32.885-208.963-152.767-199.389-276.397 7.076-93.242 64.52-178.992 146.524-219.369 43.707-21.229 74.927-28.722 120.715-28.722s77.008 7.493 120.715 28.722c62.439 30.803 111.558 88.247 133.62 155.681 9.574 28.722 11.239 41.626 11.239 82.003 0.416 42.875-0.833 51.616-12.072 83.668-29.138 82.42-92.41 145.275-172.332 171.083-39.961 12.488-109.060 14.153-149.021 3.33zM192.728 354.758c-74.511-59.109-127.376-142.361-154.849-244.761-8.325-30.387-17.067-89.080-17.067-114.472v-13.737h811.707v13.737c0 25.392-8.741 84.085-17.067 114.472-27.473 102.4-80.338 185.652-155.265 244.761l-32.468 25.808-38.296-19.98c-58.276-31.22-92.41-39.545-162.758-39.545-69.932 0-104.065 8.325-163.174 39.128l-37.88 20.397-32.885-25.808z" />
<glyph unicode="&#xe93a;" glyph-name="cart" d="M384 32c0-53.019-42.981-96-96-96s-96 42.981-96 96c0 53.019 42.981 96 96 96s96-42.981 96-96zM1024 32c0-53.019-42.981-96-96-96s-96 42.981-96 96c0 53.019 42.981 96 96 96s96-42.981 96-96zM1024 448v384h-768c0 35.346-28.654 64-64 64h-192v-64h128l48.074-412.054c-29.294-23.458-48.074-59.5-48.074-99.946 0-70.696 57.308-128 128-128h768v64h-768c-35.346 0-64 28.654-64 64 0 0.218 0.014 0.436 0.016 0.656l831.984 127.344z" />
<glyph unicode="&#xe93b;" glyph-name="medal-icon_1" horiz-adv-x="956" d="M397.293 861.543c-7.886-3.704-14.697-11.112-27.721-30.589-13.86-20.671-20.074-26.526-32.022-29.752-2.629-0.597-14.697-2.031-26.884-2.987-27.004-2.151-33.217-3.943-40.864-11.59-7.050-7.050-8.961-13.263-10.515-33.934-3.346-43.613-5.377-47.436-35.607-67.151-16.728-10.754-24.853-18.281-28.438-26.048-5.138-10.993-3.346-19.954 9.081-44.807 16.011-31.783 16.011-39.909 0-71.692-12.427-24.853-14.219-33.815-9.081-44.807 3.585-7.886 10.993-14.458 30.111-27.123 8.484-5.616 17.804-12.785 20.671-15.892 9.081-9.798 10.634-15.653 13.144-50.184 1.553-19.237 3.824-27.004 10.276-33.576 7.408-7.647 14.816-9.798 41.103-11.829 12.188-0.956 24.375-2.39 27.004-3.107 12.427-3.465 19.357-9.917 33.456-31.305 14.816-22.463 22.463-29.633 33.695-31.425 7.647-1.195 15.892 1.314 37.399 11.471 24.136 11.351 25.809 11.949 35.846 11.949s11.71-0.597 35.846-11.949c21.508-10.156 29.752-12.666 37.399-11.471 11.232 1.792 18.879 8.961 33.695 31.425 10.515 15.892 18.281 24.734 24.853 28.079 6.452 3.226 18.042 5.377 34.293 6.333 30.469 1.673 40.625 5.735 47.197 18.64 3.465 6.691 5.018 15.533 6.572 38.116 0.597 9.559 1.792 19.476 2.509 22.105 3.346 12.188 10.276 19.596 31.783 33.695 17.445 11.351 24.973 18.281 28.557 26.048 5.138 10.993 3.704 17.923-9.081 44.807-10.515 22.225-11.949 26.407-11.949 36.204 0 8.723 2.987 17.684 11.949 35.488 12.666 25.212 14.338 34.054 8.842 45.166-3.943 7.886-11.71 14.936-30.35 27.123-16.131 10.634-24.017 18.162-27.482 26.048-2.509 5.735-4.182 17.206-5.974 39.67-1.553 20.671-3.465 26.884-10.515 33.934-7.289 7.169-14.219 9.439-34.293 10.993-43.613 3.226-46.361 4.66-65.479 33.337-13.024 19.476-19.835 26.884-27.721 30.589-10.873 5.138-18.042 3.704-43.732-8.603-21.747-10.276-27.96-12.427-36.921-12.427s-15.175 2.151-36.921 12.427c-25.69 12.307-32.859 13.741-43.732 8.603zM498.379 793.914c28.438-2.987 49.228-8.961 75.754-22.105 21.030-10.515 35.965-20.791 52.216-36.324 69.78-66.315 87.464-168.835 43.852-254.626-11.232-21.866-21.508-35.965-39.909-54.366-18.162-18.281-32.5-28.796-55.322-40.267-61.177-31.067-132.75-30.947-194.285 0.119-21.986 11.112-37.758 22.583-55.681 40.625s-28.199 32.261-39.311 53.888c-35.129 69.183-30.947 150.434 11.232 215.673 13.741 21.388 34.412 43.015 55.681 58.309 13.382 9.559 42.657 24.375 58.429 29.513 28.079 9.081 58.668 12.427 87.345 9.559zM454.049 676.697c-15.772-31.664-24.017-47.078-25.69-47.795-1.314-0.478-23.897-3.943-50.184-7.647s-48.989-7.169-50.543-7.647c-2.509-0.717 0.956-4.421 34.89-37.638 27.004-26.287 37.758-37.519 37.758-39.431 0-1.434-3.704-24.614-8.364-51.618-4.54-26.884-8.364-49.587-8.364-50.423 0-1.075 4.54 0.836 12.307 4.899 6.691 3.585 19.237 10.156 27.721 14.577 8.603 4.54 24.017 12.666 34.293 18.162 10.276 5.377 19.357 9.917 20.074 9.917s10.515-4.899 21.866-10.873c11.232-5.974 26.765-14.099 34.293-18.042 7.528-4.063 19.118-10.156 25.809-13.621 6.691-3.585 12.427-6.452 12.666-6.452 0.358 0 0.239 2.151-0.358 4.779-1.553 7.050-15.653 89.376-16.25 95.589l-0.597 5.496 37.877 36.921c34.054 33.337 37.519 37.041 35.010 37.758-1.553 0.478-24.256 3.943-50.543 7.647s-48.87 7.169-50.184 7.647c-1.673 0.717-9.798 16.011-25.69 47.795-12.785 25.69-23.539 46.719-23.897 46.719s-11.112-21.030-23.897-46.719zM630.889 339.028c-13.382-1.792-15.533-3.704-32.142-28.079-12.188-18.042-21.030-27.243-31.783-32.62-6.452-3.226-8.245-3.465-19.118-3.585-13.98 0-18.042 1.195-39.431 11.471-7.886 3.824-14.458 6.691-14.697 6.572-0.597-0.597 110.286-258.33 111.361-258.927 0.478-0.239 5.496 8.961 10.993 20.432s14.816 31.305 20.91 43.971c6.094 12.546 11.71 22.941 12.427 22.941 0.836 0 21.508-6.811 46.002-15.055s44.688-14.697 45.046-14.338c0.478 0.478-14.577 36.085-82.326 193.688-12.427 28.916-22.941 52.813-23.419 53.291-0.478 0.358-2.151 0.478-3.824 0.239zM319.866 331.859c-1.673-3.824-10.395-23.539-19.357-43.971-18.401-41.581-53.53-121.040-73.365-166.086-7.169-16.37-12.905-29.991-12.666-30.23s21.030 6.333 46.241 14.577c25.092 8.245 46.361 15.055 47.078 15.055 0.836 0 3.824-5.496 6.811-12.188 2.987-6.811 10.634-23.897 16.967-37.997s12.905-28.677 14.577-32.261c2.27-5.257 3.107-6.213 4.063-4.66 0.956 1.912 18.401 40.984 69.422 156.408 11.232 25.331 26.168 58.907 33.217 74.679s12.666 28.796 12.546 29.035c-0.119 0.119-7.169-2.987-15.653-7.050-20.552-9.798-26.765-11.949-38.236-12.666-11.232-0.836-18.879 1.195-28.557 7.408-8.484 5.377-15.175 13.144-27.721 31.664-11.949 17.684-15.653 21.747-21.747 23.778-8.364 2.748-10.276 2.031-13.621-5.496z" />
<glyph unicode="&#xe93c;" glyph-name="lock" d="M490.646 831.251c-15.11-1.623-36.215-6.743-50.076-12.363-53.822-21.604-89.163-65.311-107.145-132.62-6.494-24.601-7.742-36.964-8.367-86.54l-0.5-44.956-10.864-0.749c-13.112-0.999-19.356-2.622-30.845-7.867-22.978-10.74-38.837-29.596-47.079-55.696l-2.872-9.366v-339.668l2.872-9.99c8.617-29.846 29.971-51.7 58.942-60.816l9.366-2.872h415.844l9.99 3.372c24.351 8.367 44.581 26.849 53.698 49.577 7.118 17.483 6.993 12.113 6.619 194.31-0.5 186.568 0.25 172.332-9.116 191.063-13.737 27.348-40.211 45.456-70.306 47.953l-9.116 0.749 0.125 38.712c0.125 60.441-2.498 87.415-10.864 113.514-25.725 80.172-91.036 126.501-176.702 125.502-7.742-0.125-18.357-0.624-23.602-1.249zM543.594 762.068c40.71-7.118 71.18-36.090 83.793-79.547 4.62-16.359 6.244-37.089 6.244-84.667l0.125-43.083-240.14-0.624-0.874 18.232c-0.999 19.231 0 53.573 1.998 72.304 2.747 25.35 13.861 56.944 26.474 75.551 15.11 22.103 38.213 36.589 66.435 41.834 12.238 2.248 42.833 2.248 55.945 0zM525.861 430.517c18.107-3.372 35.715-17.108 44.581-34.716 9.99-20.105 9.865-39.836-0.375-60.316-4.246-8.242-15.86-20.48-24.226-25.475-3.497-1.998-6.369-4.371-6.369-4.995 0-0.749 3.996-26.224 8.741-56.57 4.87-30.345 8.741-55.446 8.741-55.82s-20.73-0.624-46.205-0.624c-25.35 0-46.205 0.25-46.205 0.624 0 0.874 18.607 106.771 19.481 110.767 0.624 2.997 0 3.621-4.62 5.994-12.363 6.369-25.35 22.478-29.971 37.339-3.247 10.49-3.497 26.849-0.5 37.089 6.494 22.478 25.35 40.835 47.204 46.205 8.117 1.873 20.855 2.123 29.721 0.5z" />
<glyph unicode="&#xe93d;" glyph-name="protect" horiz-adv-x="903" d="M439.329 905.827c-15.085-12.993-36.115-28.738-56.705-42.391-110.218-73.222-237.832-119.246-357.519-128.716-5.175-0.44-10.13-1.101-11.011-1.652-2.422-1.542-1.982-83.462 0.551-110.548 16.516-173.86 72.451-326.028 164.721-448.138 24.664-32.702 68.487-79.277 98.656-105.043 46.575-39.859 93.151-70.469 149.856-98.766l23.343-11.561 14.975 7.157c107.465 51.2 198.194 126.514 267.121 221.536 85.994 118.476 139.066 267.892 154.921 436.466 2.422 25.765 2.863 107.465 0.661 108.786-0.771 0.551-10.020 1.762-20.37 2.863-68.046 6.827-133.891 23.012-197.973 48.888-77.736 31.271-152.719 74.983-205.571 119.907-7.377 6.166-13.543 11.341-13.763 11.231-0.22 0-5.505-4.514-11.892-10.020zM462.782 818.622c49.769-35.455 113.301-70.249 174.19-95.353 57.476-23.783 112.53-39.308 180.356-51.2l4.294-0.661-0.771-12.883c-9.8-173.75-67.496-335.828-161.197-452.982-53.622-67.166-115.613-118.806-194.67-162.078l-13.433-7.377-13.543 7.377c-134.221 72.781-232.107 183.109-292.556 329.992-36.335 88.196-57.256 182.889-63.422 286.169l-0.661 11.782 3.634 0.661c37.987 6.496 62.321 11.892 92.27 20.37 83.792 23.893 170.336 64.083 244.989 114.071 10.35 6.937 20.92 14.204 23.673 16.296s5.065 3.854 5.175 3.854c0.11 0.11 5.395-3.523 11.671-8.038zM525.763 481.032c-62.321-62.321-113.961-113.411-114.512-113.411-0.661 0-24.114 23.012-52.301 51.2l-51.090 51.2-24.554-24.444-24.554-24.554 76.194-76.194c60.009-60.009 76.525-75.974 77.846-75.203 0.991 0.551 63.752 62.982 139.396 138.625l137.634 137.745-24.224 24.224c-13.323 13.323-24.664 24.224-25.325 24.224-0.551 0-52.191-50.98-114.512-113.411z" />
<glyph unicode="&#xe93e;" glyph-name="insta" d="M291.328 941.056c-90.965-10.411-172.373-60.757-223.744-138.069-25.771-38.741-43.179-87.211-48.811-135.68-2.389-20.821-2.389-417.792 0-438.613 10.752-92.501 60.075-173.056 138.069-225.109 29.184-19.456 69.461-36.352 104.619-43.691 32.256-6.827 44.032-6.997 263.339-6.315 186.368 0.512 213.163 1.024 224.939 3.413 70.997 14.677 118.272 39.765 165.888 87.381s72.704 94.891 87.381 165.888c2.389 11.776 2.901 38.571 3.413 224.939 0.683 219.307 0.512 231.083-6.315 263.339-20.139 95.915-88.747 179.712-179.029 218.795-27.819 12.117-58.539 20.309-89.771 23.893-18.261 2.048-422.059 2.048-439.979-0.171zM717.141 849.067c51.712-4.949 95.744-25.771 132.949-62.976 37.717-37.717 58.197-81.579 63.147-134.827 1.024-12.971 1.536-88.235 1.024-217.771l-0.512-197.973-3.925-16.896c-19.285-85.504-82.944-149.163-168.277-168.448l-17.067-3.925-197.973-0.512c-129.536-0.512-204.8 0-217.771 1.024-53.248 4.949-97.109 25.429-134.827 63.147-37.205 37.205-58.027 81.237-62.976 132.949-2.389 24.917-2.219 388.437 0 411.477 3.584 33.792 14.507 65.707 32.597 95.403 12.629 20.48 46.251 54.101 66.731 66.731 28.501 17.408 62.123 29.184 92.672 32.427 20.139 2.048 392.021 2.219 414.208 0.171zM764.587 743.936c-12.288-5.291-18.773-15.701-18.773-30.037 0-10.923 3.925-18.944 12.629-25.941 12.288-10.069 35.328-7.509 45.056 4.949 8.704 10.923 9.216 28.16 1.536 39.936-8.021 12.117-26.283 17.237-40.448 11.093zM475.989 692.907c-29.867-4.779-53.589-12.8-79.531-26.283-65.195-34.475-111.104-95.403-127.147-169.643-5.461-24.917-5.461-72.704 0-97.963 5.12-23.381 12.459-43.861 23.381-65.024 34.475-66.389 95.744-112.64 170.325-128.683 25.259-5.461 73.045-5.461 97.963 0 23.381 5.12 43.861 12.459 65.024 23.381 66.389 34.475 112.469 95.403 128.683 170.325 5.461 24.917 5.461 72.704 0 97.963-21.163 98.133-95.573 172.885-192.853 193.365-22.016 4.779-65.365 5.973-85.845 2.56zM547.328 598.187c18.603-4.437 32.597-10.411 49.152-21.163 65.365-42.667 88.576-127.488 53.76-197.461-46.763-94.379-171.861-115.2-246.784-41.131-67.413 66.731-59.221 177.664 17.067 233.984 36.352 26.965 81.92 36.181 126.805 25.771z" />
<glyph unicode="&#xe93f;" glyph-name="delete" horiz-adv-x="783" d="M358.4 955.784c-21.082-6.024-38.852-16.264-56.32-32.527-18.974-18.071-28.612-34.033-36.141-58.729l-5.421-18.372-85.835-1.205c-98.786-1.506-107.219-3.313-135.529-28.612-51.2-45.779-52.104-122.579-2.108-168.659 7.529-6.927 17.769-14.758 22.889-17.167l9.336-5.12v-261.12c0-175.285 1.205-267.445 3.313-279.492 7.529-41.562 37.346-74.692 78.005-86.739 14.155-4.216 44.574-4.819 241.242-4.819 212.932 0 226.184 0.301 243.351 5.722 39.454 12.348 67.765 44.273 75.294 86.136 2.108 11.746 3.313 103.304 3.313 278.889v261.12l12.951 7.529c43.671 25.6 65.054 78.607 52.104 128-9.035 33.431-35.84 63.849-67.464 76.198-15.962 6.325-22.889 6.927-103.304 8.132l-86.136 1.205-5.12 18.372c-12.047 43.671-48.791 79.511-93.666 91.256-18.372 5.12-46.682 4.819-64.753 0zM423.153 900.668c22.287-11.144 37.647-28.009 42.165-46.682l2.108-8.433h-151.793l2.108 8.433c9.638 40.358 66.861 65.656 105.412 46.682zM698.127 785.016c20.179-9.939 30.72-28.311 30.72-53.911s-10.541-43.972-30.72-53.911l-13.252-6.325h-292.744c-256.904 0-294.249 0.602-303.887 4.518-24.696 10.24-35.238 28.913-33.431 58.729 1.205 25.299 10.842 41.261 30.118 50.899l12.951 6.325h586.993l13.252-6.325zM659.576 354.033c0-250.278-0.301-263.529-5.722-275.275-6.927-15.36-21.685-27.106-39.454-31.021-19.275-4.518-430.984-4.518-447.247 0-16.866 4.518-31.322 16.264-37.948 31.021-5.421 11.746-5.722 24.998-5.722 275.275v262.626h536.094v-262.626zM239.435 456.433c-13.854-7.529-13.553-4.216-13.553-170.165v-157.816l7.529-7.228c9.939-10.24 26.202-10.24 36.141 0l7.529 7.228v314.127l-8.734 8.734c-9.336 9.035-18.673 10.842-28.913 5.12zM374.362 452.819l-8.433-7.228v-316.235l7.228-7.831c10.842-11.445 27.407-10.842 37.647 1.506l8.132 9.336-1.807 313.224-8.433 7.228c-10.842 9.336-23.492 9.336-34.334 0zM514.711 451.313l-8.734-8.734v-314.127l7.529-7.228c9.939-10.24 26.202-10.24 36.141 0l7.529 7.228v156.612c0 86.136-0.904 158.72-1.807 161.431-2.409 5.722-16.565 13.553-25.299 13.553-3.614 0-10.541-3.915-15.36-8.734z" />
<glyph unicode="&#xe940;" glyph-name="user_icon_1" horiz-adv-x="975" d="M454.122 910.581c-62.33-8.014-129.558-55.207-166.957-117.537-67.673-113.085-39.179-271.137 63.221-349.941l24.487-19.144-29.83-10.24c-166.957-56.097-290.282-207.917-307.645-377.99l-3.117-28.494h906.463l-3.117 28.494c-4.897 48.083-19.59 96.167-44.522 147.367-56.988 115.311-152.71 196.341-280.487 236.856l-12.466 4.007 24.487 19.144c30.72 23.151 56.097 56.097 74.351 94.386 48.083 103.736 28.049 226.17-50.755 304.974-56.097 56.097-117.092 77.468-194.115 68.118zM538.268 862.497c87.263-27.158 142.915-107.297 142.915-205.245-0.445-41.85-5.788-65.892-23.151-101.51-27.158-54.762-83.256-97.057-143.36-108.188-74.797-13.357-160.723 33.391-197.677 108.188-17.809 36.063-22.706 59.659-23.151 104.181-0.445 138.908 122.435 240.417 244.424 202.574zM589.913 381.663c111.304-29.384 205.69-104.181 260.007-206.136 18.254-33.837 40.515-98.393 40.515-117.537v-10.685h-809.405l6.233 27.603c31.165 138.017 138.017 255.11 271.583 299.186 69.454 22.706 162.059 25.823 231.068 7.569z" />
<glyph unicode="&#xe941;" glyph-name="print_1" d="M244.2 902.8c-10-7-10.2-9.6-10.2-112.8v-96h-76.4c-98.4 0-106.8-1.6-131.2-24.8-12-11.4-20.8-26.8-24.2-42.8-3.2-15-3.2-405.8 0-420.8 4.8-22.4 22-45.6 41.8-56.4 18.4-10 29.8-11.2 113.6-11.2h76.4v-64c0-68.8 0.6-74 10.2-80.8 4.2-3 27.8-3.2 267.8-3.2s263.6 0.2 267.8 3.2c9.6 6.8 10.2 12 10.2 80.8v64h76.6c83.6 0 95 1.2 113.4 11.2 19.8 10.8 37 34 41.8 56.4 3.2 15 3.2 405.8 0 420.8-4.8 22.4-22 45.6-41.8 56.4-18.4 10-29.8 11.2-113.4 11.2h-76.6v96c0 103.2-0.2 105.8-10.2 112.8-4.2 3-27.8 3.2-267.8 3.2s-263.6-0.2-267.8-3.2zM746 779v-85h-468v170h468v-85zM956.6 646.8c3.6-1.8 9.4-6 13-9.4 12.8-12.2 12.4-5.6 12.4-221.4 0-215.6 0.4-209-12.4-221.4-13-12.6-13.4-12.6-100.6-12.6h-79v105.8l46.8 0.6c46.4 0.6 47 0.6 52 5.4 10.8 10.2 7.8 29-5.6 34.6-9.2 3.8-733.2 3.8-742.4 0-13.4-5.6-16.4-24.4-5.6-34.6 5-4.8 5.6-4.8 52-5.4l46.8-0.6v-105.8h-79c-87.2 0-87.6 0-100.6 12.6-12.8 12.4-12.4 5.8-12.4 221.4 0 215.8-0.4 209.2 12.4 221.4 14.4 13.6-27.4 12.4 457.2 12.6 399.6 0 439.2-0.2 445-3.2zM746 160v-128h-468v256h468v-128zM853.4 563.2c-9.8-3.6-12.8-6.4-17.8-16-10.4-20.4 5.2-45.2 28.4-45.2 16 0 29.6 12.2 31.4 28.4 2.6 22.4-20.6 40.6-42 32.8zM351.6 220.6c-11.2-7-13.2-23.4-3.8-32.8l5.8-5.8h316.8l5.8 5.8c9.4 9.6 7.4 26-4.2 32.8-5.2 3.2-19.6 3.4-160.4 3.4-140.4-0.2-155-0.4-160-3.4zM347.8 132.2c-9.4-9.6-7.4-26 4.2-32.8 5.2-3 19.6-3.4 160-3.4s154.8 0.4 160 3.4c11.6 6.8 13.6 23.2 4.2 32.8l-5.8 5.8h-316.8l-5.8-5.8z" />
<glyph unicode="&#xe942;" glyph-name="phone" d="M704 320c-64-64-64-128-128-128s-128 64-192 128-128 128-128 192 64 64 128 128-128 256-192 256-192-192-192-192c0-128 131.5-387.5 256-512s384-256 512-256c0 0 192 128 192 192s-192 256-256 192z" />
<glyph unicode="&#xe943;" glyph-name="phone1" d="M704 320c-64-64-64-128-128-128s-128 64-192 128-128 128-128 192 64 64 128 128-128 256-192 256-192-192-192-192c0-128 131.5-387.5 256-512s384-256 512-256c0 0 192 128 192 192s-192 256-256 192z" />
<glyph unicode="&#xe944;" glyph-name="phone2" d="M704 320c-64-64-64-128-128-128s-128 64-192 128-128 128-128 192 64 64 128 128-128 256-192 256-192-192-192-192c0-128 131.5-387.5 256-512s384-256 512-256c0 0 192 128 192 192s-192 256-256 192z" />
<glyph unicode="&#xe945;" glyph-name="facebook3" d="M451.2 944c-59.52-8.32-118.4-26.56-169.6-53.12-136.64-71.040-232.32-198.4-263.040-351.040-10.24-50.56-10.24-141.76 0-190.080 38.080-177.28 158.4-316.16 325.44-375.36 24.64-8.64 74.88-22.4 82.56-22.4 1.28 0 2.24 88 2.24 195.2v195.2h-121.6v137.6l60.16 0.64 59.84 0.96 1.92 75.2c1.92 81.92 4.16 93.44 23.040 129.6 19.84 37.44 56.64 64.96 103.040 76.8 19.84 5.12 111.040 6.72 144.96 2.88l16.64-2.24v-123.84h-41.6c-52.16 0-71.68-3.84-85.12-17.28-14.72-14.72-17.6-29.44-16.64-88.96l0.96-52.16 68.16-0.96c63.36-0.64 67.84-1.28 67.84-6.72 0-3.2-3.52-32.96-8-66.24s-8-61.44-8-62.72c0-1.6-27.2-2.56-60.8-2.56h-60.8v-196.8c0-140.16 0.96-196.8 3.52-196.8 1.92 0 17.6 2.88 35.2 6.4 242.24 49.6 413.12 267.2 401.92 512-10.56 232.32-175.68 424.32-404.8 470.72-35.52 7.36-124.16 10.56-157.44 6.080z" />
<glyph unicode="&#xe946;" glyph-name="favorite-icon" d="M294.4 834.56c-104.107-15.076-178.631-109.227-170.951-216.178 3.698-53.191 17.351-98.702 47.218-157.867 36.978-72.818 98.418-155.591 178.916-241.493 69.689-74.24 155.022-160.427 160.142-161.849 5.404-1.138 15.36 7.396 58.596 50.347 153.6 152.178 239.787 258.844 289.28 357.262 31.573 63.147 41.244 98.418 43.236 155.591 1.422 40.676 1.138 44.658-5.973 69.689-14.222 49.493-48.64 94.151-92.729 120.036-54.613 31.858-129.422 35.556-187.164 9.102-32.142-14.791-64.284-46.364-90.169-88.747-5.973-9.956-11.662-17.92-12.8-17.92s-3.413 3.413-5.404 7.68c-6.542 14.507-29.867 46.933-44.658 62.009-41.813 43.236-101.547 62.009-167.538 52.338zM365.511 807.822c51.484-10.809 92.444-46.933 126.009-111.502 12.231-23.609 19.911-30.151 27.591-23.609 2.276 1.707 9.387 13.084 15.929 25.031 35.271 65.138 74.24 99.556 124.302 110.364 93.298 19.627 185.458-34.133 211.911-123.733 6.542-22.471 7.68-73.956 2.276-102.684-8.249-44.089-38.4-114.062-70.258-163.556-47.218-73.671-113.209-151.324-227.556-268.516l-62.293-63.716-69.404 70.542c-208.213 212.196-289.564 340.196-295.253 466.489-1.422 29.582-0.853 37.262 4.551 56.889 9.387 33.849 21.049 53.76 47.218 79.644 44.658 44.658 102.116 61.44 164.978 48.356z" />
<glyph unicode="&#xe947;" glyph-name="location" d="M512 960c-176.732 0-320-143.268-320-320 0-320 320-704 320-704s320 384 320 704c0 176.732-143.27 320-320 320zM512 448c-106.040 0-192 85.96-192 192s85.96 192 192 192 192-85.96 192-192-85.96-192-192-192z" />
<glyph unicode="&#xe948;" glyph-name="Shopping-Basket-icon" d="M284.6 687.6c-63.4-63.4-90.8-92-91.6-96l-1.4-5.6h-158l-5.8-5.8c-6.4-6.4-7.6-15.8-3.4-25.2 4.4-9.6 10.2-11 47.4-11 33.8 0 34.2 0 35.2-4.4 0.6-2.6 20-94.6 43-204.6 23.2-110 43-202.4 44.2-205.2 1-2.8 4.6-6.6 7.6-8.4 5.4-3.2 28-3.4 311-3.4h305.2l6.2 5.6 6.4 5.6 42.6 203c23.6 111.6 43.2 204.8 43.8 207.4 1 4.4 1.4 4.4 35.2 4.4 28.4 0 35.2 0.6 39.8 3.4 11.6 6.8 13.6 23.2 4.2 32.8l-5.8 5.8h-158l-1.4 5.6c-0.8 4-28.2 32.6-91.6 96-90.2 90.2-90.6 90.4-98.8 90.4-15.2 0-25.6-13.8-20.6-27.2 1.2-3.2 36.4-40 81.6-85.2l79.4-79.6h-538l80.4 80.6c85.8 86 86.2 86.6 79.8 99.2-4.4 8.4-10.8 12.2-20 12.2-8 0-9.4-1.4-98.6-90.4zM873.6 540.6c-0.6-2-18.8-88.4-40.6-192l-39.8-188.6h-562.4l-39.6 188.2c-21.8 103.6-40.2 190-40.6 192-1 3.6 8.8 3.8 361.4 3.8 344.2 0 362.4-0.2 361.6-3.4z" />
<glyph unicode="&#xe949;" glyph-name="home3" d="M1024 352l-192 192v288h-128v-160l-192 192-512-512v-32h128v-320h320v192h128v-192h320v320h128z" />
<glyph unicode="&#xe94a;" glyph-name="play" d="M981.188 799.892c-143.632 20.65-302.332 32.108-469.186 32.108-166.86 0-325.556-11.458-469.194-32.108-27.53-107.726-42.808-226.75-42.808-351.892 0-125.14 15.278-244.166 42.808-351.89 143.638-20.652 302.336-32.11 469.194-32.11 166.854 0 325.552 11.458 469.186 32.11 27.532 107.724 42.812 226.75 42.812 351.89 0 125.142-15.28 244.166-42.812 351.892zM384.002 256v384l320-192-320-192z" />
<glyph unicode="&#xe94e;" glyph-name="clock" d="M658.744 210.744l-210.744 210.746v282.51h128v-229.49l173.256-173.254zM512 960c-282.77 0-512-229.23-512-512s229.23-512 512-512 512 229.23 512 512-229.23 512-512 512zM512 64c-212.078 0-384 171.922-384 384s171.922 384 384 384c212.078 0 384-171.922 384-384s-171.922-384-384-384z" />
<glyph unicode="&#xe954;" glyph-name="printer" d="M256 896h512v-128h-512v128zM960 704h-896c-35.2 0-64-28.8-64-64v-320c0-35.2 28.794-64 64-64h192v-256h512v256h192c35.2 0 64 28.8 64 64v320c0 35.2-28.8 64-64 64zM128 512c-35.346 0-64 28.654-64 64s28.654 64 64 64 64-28.654 64-64-28.652-64-64-64zM704 64h-384v320h384v-320z" />
<glyph unicode="&#xe958;" glyph-name="mobile" d="M736 960h-448c-52.8 0-96-43.2-96-96v-832c0-52.8 43.2-96 96-96h448c52.8 0 96 43.2 96 96v832c0 52.8-43.2 96-96 96zM384 912h256v-32h-256v32zM512 0c-35.346 0-64 28.654-64 64s28.654 64 64 64 64-28.654 64-64-28.654-64-64-64zM768 192h-512v640h512v-640z" />
<glyph unicode="&#xe96b;" glyph-name="bubble" d="M512 896c282.77 0 512-186.25 512-416 0-229.752-229.23-416-512-416-27.156 0-53.81 1.734-79.824 5.044-109.978-109.978-241.25-129.7-368.176-132.596v26.916c68.536 33.578 128 94.74 128 164.636 0 9.754-0.758 19.33-2.164 28.696-115.796 76.264-189.836 192.754-189.836 323.304 0 229.75 229.23 416 512 416z" />
<glyph unicode="&#xe96c;" glyph-name="bubbles" horiz-adv-x="1152" d="M1088 58.834c0-45.5 26.028-84.908 64-104.184v-15.938c-10.626-1.454-21.472-2.224-32.5-2.224-68.008 0-129.348 28.528-172.722 74.264-26.222-6.982-54.002-10.752-82.778-10.752-159.058 0-288 114.616-288 256s128.942 256 288 256c159.058 0 288-114.616 288-256 0-55.348-19.764-106.592-53.356-148.466-6.824-14.824-10.644-31.312-10.644-48.7zM512 960c278.458 0 504.992-180.614 511.836-405.52-49.182 21.92-103.586 33.52-159.836 33.52-95.56 0-185.816-33.446-254.138-94.178-70.846-62.972-109.862-147.434-109.862-237.822 0-44.672 9.544-87.888 27.736-127.788-5.228-0.126-10.468-0.212-15.736-0.212-27.156 0-53.81 1.734-79.824 5.044-109.978-109.978-241.25-129.7-368.176-132.596v26.916c68.536 33.578 128 94.74 128 164.636 0 9.754-0.758 19.33-2.164 28.696-115.796 76.264-189.836 192.754-189.836 323.304 0 229.75 229.23 416 512 416z" />
<glyph unicode="&#xe972;" glyph-name="users" horiz-adv-x="1152" d="M768 189.388v52.78c70.498 39.728 128 138.772 128 237.832 0 159.058 0 288-192 288s-192-128.942-192-288c0-99.060 57.502-198.104 128-237.832v-52.78c-217.102-17.748-384-124.42-384-253.388h896c0 128.968-166.898 235.64-384 253.388zM327.196 164.672c55.31 36.15 124.080 63.636 199.788 80.414-15.054 17.784-28.708 37.622-40.492 59.020-30.414 55.234-46.492 116.058-46.492 175.894 0 86.042 0 167.31 30.6 233.762 29.706 64.504 83.128 104.496 159.222 119.488-16.914 76.48-61.94 126.75-181.822 126.75-192 0-192-128.942-192-288 0-99.060 57.502-198.104 128-237.832v-52.78c-217.102-17.748-384-124.42-384-253.388h279.006c14.518 12.91 30.596 25.172 48.19 36.672z" />
<glyph unicode="&#xe986;" glyph-name="search" d="M992.262 88.604l-242.552 206.294c-25.074 22.566-51.89 32.926-73.552 31.926 57.256 67.068 91.842 154.078 91.842 249.176 0 212.078-171.922 384-384 384-212.076 0-384-171.922-384-384s171.922-384 384-384c95.098 0 182.108 34.586 249.176 91.844-1-21.662 9.36-48.478 31.926-73.552l206.294-242.552c35.322-39.246 93.022-42.554 128.22-7.356s31.892 92.898-7.354 128.22zM384 320c-141.384 0-256 114.616-256 256s114.616 256 256 256 256-114.616 256-256-114.614-256-256-256z" />
<glyph unicode="&#xe9ac;" glyph-name="bin" d="M128 640v-640c0-35.2 28.8-64 64-64h576c35.2 0 64 28.8 64 64v640h-704zM320 64h-64v448h64v-448zM448 64h-64v448h64v-448zM576 64h-64v448h64v-448zM704 64h-64v448h64v-448zM848 832h-208v80c0 26.4-21.6 48-48 48h-224c-26.4 0-48-21.6-48-48v-80h-208c-26.4 0-48-21.6-48-48v-80h832v80c0 26.4-21.6 48-48 48zM576 832h-192v63.198h192v-63.198z" />
<glyph unicode="&#xe9ba;" glyph-name="list" d="M0 960h256v-256h-256zM384 896h640v-128h-640zM0 576h256v-256h-256zM384 512h640v-128h-640zM0 192h256v-256h-256zM384 128h640v-128h-640z" />
<glyph unicode="&#xe9d2;" glyph-name="bookmark" d="M192 960v-1024l320 320 320-320v1024z" />
<glyph unicode="&#xe9da;" glyph-name="heart" d="M755.188 896c-107.63 0-200.258-87.554-243.164-179-42.938 91.444-135.578 179-243.216 179-148.382 0-268.808-120.44-268.808-268.832 0-301.846 304.5-380.994 512.022-679.418 196.154 296.576 511.978 387.206 511.978 679.418 0 148.392-120.43 268.832-268.812 268.832z" />
<glyph unicode="&#xea10;" glyph-name="checkmark" d="M864 832l-480-480-224 224-160-160 384-384 640 640z" />
<glyph unicode="&#xea3c;" glyph-name="arrow-right2" d="M621.254 82.746l320 320c24.994 24.992 24.994 65.516 0 90.51l-320 320c-24.994 24.992-65.516 24.992-90.51 0-24.994-24.994-24.994-65.516 0-90.51l210.746-210.746h-613.49c-35.346 0-64-28.654-64-64s28.654-64 64-64h613.49l-210.746-210.746c-12.496-12.496-18.744-28.876-18.744-45.254s6.248-32.758 18.744-45.254c24.994-24.994 65.516-24.994 90.51 0z" />
<glyph unicode="&#xea50;" glyph-name="ctrl" d="M736.014 512c-8.908 0-17.77 3.698-24.096 10.928l-199.918 228.478-199.918-228.478c-11.636-13.3-31.856-14.65-45.154-3.010-13.3 11.638-14.648 31.854-3.010 45.154l224 256c6.076 6.944 14.854 10.928 24.082 10.928s18.006-3.984 24.082-10.928l224-256c11.638-13.3 10.292-33.516-3.010-45.154-6.070-5.312-13.582-7.918-21.058-7.918z" />
<glyph unicode="&#xea53;" glyph-name="checkbox-unchecked" d="M896 960h-768c-70.4 0-128-57.6-128-128v-768c0-70.4 57.6-128 128-128h768c70.4 0 128 57.6 128 128v768c0 70.4-57.6 128-128 128zM896 64h-768v768h768v-768z" />
<glyph unicode="&#xea82;" glyph-name="share2" d="M864 256c-45.16 0-85.92-18.738-115.012-48.83l-431.004 215.502c1.314 8.252 2.016 16.706 2.016 25.328s-0.702 17.076-2.016 25.326l431.004 215.502c29.092-30.090 69.852-48.828 115.012-48.828 88.366 0 160 71.634 160 160s-71.634 160-160 160-160-71.634-160-160c0-8.622 0.704-17.076 2.016-25.326l-431.004-215.504c-29.092 30.090-69.852 48.83-115.012 48.83-88.366 0-160-71.636-160-160 0-88.368 71.634-160 160-160 45.16 0 85.92 18.738 115.012 48.828l431.004-215.502c-1.312-8.25-2.016-16.704-2.016-25.326 0-88.368 71.634-160 160-160s160 71.632 160 160c0 88.364-71.634 160-160 160z" />
<glyph unicode="&#xea8b;" glyph-name="google-plus" d="M325.8 502.6v-111.8h184.8c-7.4-48-55.8-140.6-184.8-140.6-111.2 0-202 92.2-202 205.8s90.8 205.8 202 205.8c63.4 0 105.6-27 129.8-50.2l88.4 85.2c-56.8 53-130.4 85.2-218.2 85.2-180.2-0.2-325.8-145.8-325.8-326s145.6-325.8 325.8-325.8c188 0 312.8 132.2 312.8 318.4 0 21.4-2.4 37.8-5.2 54h-307.6zM1024 512h-96v96h-96v-96h-96v-96h96v-96h96v96h96z" />
<glyph unicode="&#xea8c;" glyph-name="google-plus1" d="M325.8 502.6v-111.8h184.8c-7.4-48-55.8-140.6-184.8-140.6-111.2 0-202 92.2-202 205.8s90.8 205.8 202 205.8c63.4 0 105.6-27 129.8-50.2l88.4 85.2c-56.8 53-130.4 85.2-218.2 85.2-180.2-0.2-325.8-145.8-325.8-326s145.6-325.8 325.8-325.8c188 0 312.8 132.2 312.8 318.4 0 21.4-2.4 37.8-5.2 54h-307.6zM1024 512h-96v96h-96v-96h-96v-96h96v-96h96v96h96z" />
<glyph unicode="&#xea8f;" glyph-name="google-drive" d="M438 320l-184.6-320h580.6l184.6 320zM992.4 384l-295.6 512h-369.6l295.6-512zM290.2 832l-290.2-502.8 184.8-320 290.2 502.8z" />
<glyph unicode="&#xea90;" glyph-name="facebook" d="M608 768h160v192h-160c-123.514 0-224-100.486-224-224v-96h-128v-192h128v-512h192v512h160l32 192h-192v96c0 17.346 14.654 32 32 32z" />
<glyph unicode="&#xea91;" glyph-name="facebook1" d="M608 768h160v192h-160c-123.514 0-224-100.486-224-224v-96h-128v-192h128v-512h192v512h160l32 192h-192v96c0 17.346 14.654 32 32 32z" />
<glyph unicode="&#xea92;" glyph-name="instagram" d="M512 867.8c136.8 0 153-0.6 206.8-3 50-2.2 77-10.6 95-17.6 23.8-9.2 41-20.4 58.8-38.2 18-18 29-35 38.4-58.8 7-18 15.4-45.2 17.6-95 2.4-54 3-70.2 3-206.8s-0.6-153-3-206.8c-2.2-50-10.6-77-17.6-95-9.2-23.8-20.4-41-38.2-58.8-18-18-35-29-58.8-38.4-18-7-45.2-15.4-95-17.6-54-2.4-70.2-3-206.8-3s-153 0.6-206.8 3c-50 2.2-77 10.6-95 17.6-23.8 9.2-41 20.4-58.8 38.2-18 18-29 35-38.4 58.8-7 18-15.4 45.2-17.6 95-2.4 54-3 70.2-3 206.8s0.6 153 3 206.8c2.2 50 10.6 77 17.6 95 9.2 23.8 20.4 41 38.2 58.8 18 18 35 29 58.8 38.4 18 7 45.2 15.4 95 17.6 53.8 2.4 70 3 206.8 3zM512 960c-139 0-156.4-0.6-211-3-54.4-2.4-91.8-11.2-124.2-23.8-33.8-13.2-62.4-30.6-90.8-59.2-28.6-28.4-46-57-59.2-90.6-12.6-32.6-21.4-69.8-23.8-124.2-2.4-54.8-3-72.2-3-211.2s0.6-156.4 3-211c2.4-54.4 11.2-91.8 23.8-124.2 13.2-33.8 30.6-62.4 59.2-90.8 28.4-28.4 57-46 90.6-59 32.6-12.6 69.8-21.4 124.2-23.8 54.6-2.4 72-3 211-3s156.4 0.6 211 3c54.4 2.4 91.8 11.2 124.2 23.8 33.6 13 62.2 30.6 90.6 59s46 57 59 90.6c12.6 32.6 21.4 69.8 23.8 124.2 2.4 54.6 3 72 3 211s-0.6 156.4-3 211c-2.4 54.4-11.2 91.8-23.8 124.2-12.6 34-30 62.6-58.6 91-28.4 28.4-57 46-90.6 59-32.6 12.6-69.8 21.4-124.2 23.8-54.8 2.6-72.2 3.2-211.2 3.2v0zM512 711c-145.2 0-263-117.8-263-263s117.8-263 263-263 263 117.8 263 263c0 145.2-117.8 263-263 263zM512 277.4c-94.2 0-170.6 76.4-170.6 170.6s76.4 170.6 170.6 170.6c94.2 0 170.6-76.4 170.6-170.6s-76.4-170.6-170.6-170.6zM846.8 721.4c0-33.91-27.49-61.4-61.4-61.4s-61.4 27.49-61.4 61.4c0 33.91 27.49 61.4 61.4 61.4s61.4-27.49 61.4-61.4z" />
<glyph unicode="&#xea93;" glyph-name="instagram1" d="M512 867.8c136.8 0 153-0.6 206.8-3 50-2.2 77-10.6 95-17.6 23.8-9.2 41-20.4 58.8-38.2 18-18 29-35 38.4-58.8 7-18 15.4-45.2 17.6-95 2.4-54 3-70.2 3-206.8s-0.6-153-3-206.8c-2.2-50-10.6-77-17.6-95-9.2-23.8-20.4-41-38.2-58.8-18-18-35-29-58.8-38.4-18-7-45.2-15.4-95-17.6-54-2.4-70.2-3-206.8-3s-153 0.6-206.8 3c-50 2.2-77 10.6-95 17.6-23.8 9.2-41 20.4-58.8 38.2-18 18-29 35-38.4 58.8-7 18-15.4 45.2-17.6 95-2.4 54-3 70.2-3 206.8s0.6 153 3 206.8c2.2 50 10.6 77 17.6 95 9.2 23.8 20.4 41 38.2 58.8 18 18 35 29 58.8 38.4 18 7 45.2 15.4 95 17.6 53.8 2.4 70 3 206.8 3zM512 960c-139 0-156.4-0.6-211-3-54.4-2.4-91.8-11.2-124.2-23.8-33.8-13.2-62.4-30.6-90.8-59.2-28.6-28.4-46-57-59.2-90.6-12.6-32.6-21.4-69.8-23.8-124.2-2.4-54.8-3-72.2-3-211.2s0.6-156.4 3-211c2.4-54.4 11.2-91.8 23.8-124.2 13.2-33.8 30.6-62.4 59.2-90.8 28.4-28.4 57-46 90.6-59 32.6-12.6 69.8-21.4 124.2-23.8 54.6-2.4 72-3 211-3s156.4 0.6 211 3c54.4 2.4 91.8 11.2 124.2 23.8 33.6 13 62.2 30.6 90.6 59s46 57 59 90.6c12.6 32.6 21.4 69.8 23.8 124.2 2.4 54.6 3 72 3 211s-0.6 156.4-3 211c-2.4 54.4-11.2 91.8-23.8 124.2-12.6 34-30 62.6-58.6 91-28.4 28.4-57 46-90.6 59-32.6 12.6-69.8 21.4-124.2 23.8-54.8 2.6-72.2 3.2-211.2 3.2v0zM512 711c-145.2 0-263-117.8-263-263s117.8-263 263-263 263 117.8 263 263c0 145.2-117.8 263-263 263zM512 277.4c-94.2 0-170.6 76.4-170.6 170.6s76.4 170.6 170.6 170.6c94.2 0 170.6-76.4 170.6-170.6s-76.4-170.6-170.6-170.6zM846.8 721.4c0-33.91-27.49-61.4-61.4-61.4s-61.4 27.49-61.4 61.4c0 33.91 27.49 61.4 61.4 61.4s61.4-27.49 61.4-61.4z" />
<glyph unicode="&#xea94;" glyph-name="facebook2" d="M928 960h-832c-52.8 0-96-43.2-96-96v-832c0-52.8 43.2-96 96-96h416v448h-128v128h128v64c0 105.8 86.2 192 192 192h128v-128h-128c-35.2 0-64-28.8-64-64v-64h192l-32-128h-160v-448h288c52.8 0 96 43.2 96 96v832c0 52.8-43.2 96-96 96z" />
<glyph unicode="&#xea95;" glyph-name="instagram2" d="M512 867.8c136.8 0 153-0.6 206.8-3 50-2.2 77-10.6 95-17.6 23.8-9.2 41-20.4 58.8-38.2 18-18 29-35 38.4-58.8 7-18 15.4-45.2 17.6-95 2.4-54 3-70.2 3-206.8s-0.6-153-3-206.8c-2.2-50-10.6-77-17.6-95-9.2-23.8-20.4-41-38.2-58.8-18-18-35-29-58.8-38.4-18-7-45.2-15.4-95-17.6-54-2.4-70.2-3-206.8-3s-153 0.6-206.8 3c-50 2.2-77 10.6-95 17.6-23.8 9.2-41 20.4-58.8 38.2-18 18-29 35-38.4 58.8-7 18-15.4 45.2-17.6 95-2.4 54-3 70.2-3 206.8s0.6 153 3 206.8c2.2 50 10.6 77 17.6 95 9.2 23.8 20.4 41 38.2 58.8 18 18 35 29 58.8 38.4 18 7 45.2 15.4 95 17.6 53.8 2.4 70 3 206.8 3zM512 960c-139 0-156.4-0.6-211-3-54.4-2.4-91.8-11.2-124.2-23.8-33.8-13.2-62.4-30.6-90.8-59.2-28.6-28.4-46-57-59.2-90.6-12.6-32.6-21.4-69.8-23.8-124.2-2.4-54.8-3-72.2-3-211.2s0.6-156.4 3-211c2.4-54.4 11.2-91.8 23.8-124.2 13.2-33.8 30.6-62.4 59.2-90.8 28.4-28.4 57-46 90.6-59 32.6-12.6 69.8-21.4 124.2-23.8 54.6-2.4 72-3 211-3s156.4 0.6 211 3c54.4 2.4 91.8 11.2 124.2 23.8 33.6 13 62.2 30.6 90.6 59s46 57 59 90.6c12.6 32.6 21.4 69.8 23.8 124.2 2.4 54.6 3 72 3 211s-0.6 156.4-3 211c-2.4 54.4-11.2 91.8-23.8 124.2-12.6 34-30 62.6-58.6 91-28.4 28.4-57 46-90.6 59-32.6 12.6-69.8 21.4-124.2 23.8-54.8 2.6-72.2 3.2-211.2 3.2v0zM512 711c-145.2 0-263-117.8-263-263s117.8-263 263-263 263 117.8 263 263c0 145.2-117.8 263-263 263zM512 277.4c-94.2 0-170.6 76.4-170.6 170.6s76.4 170.6 170.6 170.6c94.2 0 170.6-76.4 170.6-170.6s-76.4-170.6-170.6-170.6zM846.8 721.4c0-33.91-27.49-61.4-61.4-61.4s-61.4 27.49-61.4 61.4c0 33.91 27.49 61.4 61.4 61.4s61.4-27.49 61.4-61.4z" />
<glyph unicode="&#xea96;" glyph-name="twitter" d="M1024 733.6c-37.6-16.8-78.2-28-120.6-33 43.4 26 76.6 67.2 92.4 116.2-40.6-24-85.6-41.6-133.4-51-38.4 40.8-93 66.2-153.4 66.2-116 0-210-94-210-210 0-16.4 1.8-32.4 5.4-47.8-174.6 8.8-329.4 92.4-433 219.6-18-31-28.4-67.2-28.4-105.6 0-72.8 37-137.2 93.4-174.8-34.4 1-66.8 10.6-95.2 26.2 0-0.8 0-1.8 0-2.6 0-101.8 72.4-186.8 168.6-206-17.6-4.8-36.2-7.4-55.4-7.4-13.6 0-26.6 1.4-39.6 3.8 26.8-83.4 104.4-144.2 196.2-146-72-56.4-162.4-90-261-90-17 0-33.6 1-50.2 3 93.2-59.8 203.6-94.4 322.2-94.4 386.4 0 597.8 320.2 597.8 597.8 0 9.2-0.2 18.2-0.6 27.2 41 29.4 76.6 66.4 104.8 108.6z" />
<glyph unicode="&#xea97;" glyph-name="twitter1" d="M1024 733.6c-37.6-16.8-78.2-28-120.6-33 43.4 26 76.6 67.2 92.4 116.2-40.6-24-85.6-41.6-133.4-51-38.4 40.8-93 66.2-153.4 66.2-116 0-210-94-210-210 0-16.4 1.8-32.4 5.4-47.8-174.6 8.8-329.4 92.4-433 219.6-18-31-28.4-67.2-28.4-105.6 0-72.8 37-137.2 93.4-174.8-34.4 1-66.8 10.6-95.2 26.2 0-0.8 0-1.8 0-2.6 0-101.8 72.4-186.8 168.6-206-17.6-4.8-36.2-7.4-55.4-7.4-13.6 0-26.6 1.4-39.6 3.8 26.8-83.4 104.4-144.2 196.2-146-72-56.4-162.4-90-261-90-17 0-33.6 1-50.2 3 93.2-59.8 203.6-94.4 322.2-94.4 386.4 0 597.8 320.2 597.8 597.8 0 9.2-0.2 18.2-0.6 27.2 41 29.4 76.6 66.4 104.8 108.6z" />
<glyph unicode="&#xea98;" glyph-name="twitter2" d="M1024 733.6c-37.6-16.8-78.2-28-120.6-33 43.4 26 76.6 67.2 92.4 116.2-40.6-24-85.6-41.6-133.4-51-38.4 40.8-93 66.2-153.4 66.2-116 0-210-94-210-210 0-16.4 1.8-32.4 5.4-47.8-174.6 8.8-329.4 92.4-433 219.6-18-31-28.4-67.2-28.4-105.6 0-72.8 37-137.2 93.4-174.8-34.4 1-66.8 10.6-95.2 26.2 0-0.8 0-1.8 0-2.6 0-101.8 72.4-186.8 168.6-206-17.6-4.8-36.2-7.4-55.4-7.4-13.6 0-26.6 1.4-39.6 3.8 26.8-83.4 104.4-144.2 196.2-146-72-56.4-162.4-90-261-90-17 0-33.6 1-50.2 3 93.2-59.8 203.6-94.4 322.2-94.4 386.4 0 597.8 320.2 597.8 597.8 0 9.2-0.2 18.2-0.6 27.2 41 29.4 76.6 66.4 104.8 108.6z" />
<glyph unicode="&#xea99;" glyph-name="whatsapp" d="M873 811.2c-95.8 96-223.2 148.8-359 148.8-279.6 0-507.2-227.6-507.2-507.4 0-89.4 23.4-176.8 67.8-253.6l-72-263 269 70.6c74.2-40.4 157.6-61.8 242.4-61.8h0.2c0 0 0 0 0 0 279.6 0 507.4 227.6 507.4 507.4 0 135.6-52.8 263-148.6 359zM514.2 30.4v0c-75.8 0-150 20.4-214.8 58.8l-15.4 9.2-159.6-41.8 42.6 155.6-10 16c-42.4 67-64.6 144.6-64.6 224.4 0 232.6 189.2 421.8 422 421.8 112.6 0 218.6-44 298.2-123.6 79.6-79.8 123.4-185.6 123.4-298.4-0.2-232.8-189.4-422-421.8-422zM745.4 346.4c-12.6 6.4-75 37-86.6 41.2s-20 6.4-28.6-6.4c-8.4-12.6-32.8-41.2-40.2-49.8-7.4-8.4-14.8-9.6-27.4-3.2s-53.6 19.8-102 63c-37.6 33.6-63.2 75.2-70.6 87.8s-0.8 19.6 5.6 25.8c5.8 5.6 12.6 14.8 19 22.2s8.4 12.6 12.6 21.2c4.2 8.4 2.2 15.8-1 22.2s-28.6 68.8-39 94.2c-10.2 24.8-20.8 21.4-28.6 21.8-7.4 0.4-15.8 0.4-24.2 0.4s-22.2-3.2-33.8-15.8c-11.6-12.6-44.4-43.4-44.4-105.8s45.4-122.6 51.8-131.2c6.4-8.4 89.4-136.6 216.6-191.4 30.2-13 53.8-20.8 72.2-26.8 30.4-9.6 58-8.2 79.8-5 24.4 3.6 75 30.6 85.6 60.2s10.6 55 7.4 60.2c-3 5.6-11.4 8.8-24.2 15.2z" />
<glyph unicode="&#xea9a;" glyph-name="telegram" d="M512 960c-282.8 0-512-229.2-512-512s229.2-512 512-512 512 229.2 512 512-229.2 512-512 512zM763.6 609l-84-395.8c-5.8-28.2-22.8-34.8-46.4-21.8l-128 94.6-61.4-59.8c-7.2-7-12.8-12.8-25.6-12.8-16.6 0-13.8 6.2-19.4 22l-43.6 143.2-126.6 39.4c-27.4 8.4-27.6 27.2 6.2 40.6l493.2 190.4c22.4 10.2 44.2-5.4 35.6-40z" />
<glyph unicode="&#xea9d;" glyph-name="youtube" d="M1013.8 652.8c0 0-10 70.6-40.8 101.6-39 40.8-82.6 41-102.6 43.4-143.2 10.4-358.2 10.4-358.2 10.4h-0.4c0 0-215 0-358.2-10.4-20-2.4-63.6-2.6-102.6-43.4-30.8-31-40.6-101.6-40.6-101.6s-10.2-82.8-10.2-165.8v-77.6c0-82.8 10.2-165.8 10.2-165.8s10-70.6 40.6-101.6c39-40.8 90.2-39.4 113-43.8 82-7.8 348.2-10.2 348.2-10.2s215.2 0.4 358.4 10.6c20 2.4 63.6 2.6 102.6 43.4 30.8 31 40.8 101.6 40.8 101.6s10.2 82.8 10.2 165.8v77.6c-0.2 82.8-10.4 165.8-10.4 165.8zM406.2 315.2v287.8l276.6-144.4-276.6-143.4z" />
<glyph unicode="&#xeab0;" glyph-name="github" d="M512.008 947.358c-282.738 0-512.008-229.218-512.008-511.998 0-226.214 146.704-418.132 350.136-485.836 25.586-4.738 34.992 11.11 34.992 24.632 0 12.204-0.48 52.542-0.696 95.324-142.448-30.976-172.504 60.41-172.504 60.41-23.282 59.176-56.848 74.916-56.848 74.916-46.452 31.778 3.51 31.124 3.51 31.124 51.4-3.61 78.476-52.766 78.476-52.766 45.672-78.27 119.776-55.64 149.004-42.558 4.588 33.086 17.852 55.68 32.506 68.464-113.73 12.942-233.276 56.85-233.276 253.032 0 55.898 20.004 101.574 52.76 137.428-5.316 12.9-22.854 64.972 4.952 135.5 0 0 43.006 13.752 140.84-52.49 40.836 11.348 84.636 17.036 128.154 17.234 43.502-0.198 87.336-5.886 128.256-17.234 97.734 66.244 140.656 52.49 140.656 52.49 27.872-70.528 10.35-122.6 5.036-135.5 32.82-35.856 52.694-81.532 52.694-137.428 0-196.654-119.778-239.95-233.79-252.624 18.364-15.89 34.724-47.046 34.724-94.812 0-68.508-0.596-123.644-0.596-140.508 0-13.628 9.222-29.594 35.172-24.566 203.322 67.776 349.842 259.626 349.842 485.768 0 282.78-229.234 511.998-511.992 511.998z" />
<glyph unicode="&#xeab4;" glyph-name="wordpress" d="M128 448.008c0-148.026 88.322-275.968 216.43-336.578l-183.178 488.784c-21.308-46.508-33.252-97.982-33.252-152.206zM771.228 466.872c0 46.234-17.054 78.236-31.654 103.142-19.458 30.82-37.72 56.894-37.72 87.716 0 34.374 26.766 66.376 64.486 66.376 1.704 0 3.32-0.204 4.976-0.302-68.316 60.97-159.34 98.196-259.308 98.196-134.16 0-252.186-67.046-320.844-168.568 9.010-0.282 17.506-0.454 24.712-0.454 40.154 0 102.34 4.752 102.34 4.752 20.69 1.182 23.132-28.434 2.458-30.822 0 0-20.81-2.368-43.952-3.55l139.834-405.106 84.044 245.456-59.822 159.65c-20.688 1.184-40.278 3.55-40.278 3.55-20.702 1.192-18.272 32.002 2.438 30.822 0 0 63.4-4.752 101.134-4.752 40.146 0 102.35 4.752 102.35 4.752 20.702 1.182 23.14-28.434 2.446-30.822 0 0-20.834-2.372-43.948-3.55l138.78-402.018 38.312 124.632c16.58 51.75 29.216 88.9 29.216 120.9zM518.742 415.296l-115.226-326.058c34.416-9.858 70.794-15.238 108.488-15.238 44.716 0 87.604 7.518 127.518 21.2-1.018 1.602-1.974 3.304-2.75 5.154l-118.030 314.942zM848.962 627.428c1.652-11.91 2.588-24.686 2.588-38.458 0-37.93-7.292-80.596-29.202-133.95l-117.286-330.272c114.162 64.828 190.938 185.288 190.938 323.258 0 65.030-17.060 126.16-47.038 179.422zM512 960c-282.77 0-512-229.23-512-512s229.23-512 512-512 512 229.23 512 512-229.23 512-512 512zM512 0c-247.424 0-448 200.576-448 448s200.576 448 448 448 448-200.576 448-448-200.576-448-448-448z" />
<glyph unicode="&#xeabe;" glyph-name="appleinc" d="M791.498 415.908c-1.294 129.682 105.758 191.876 110.542 194.966-60.152 88.020-153.85 100.078-187.242 101.472-79.742 8.074-155.596-46.948-196.066-46.948-40.368 0-102.818 45.754-168.952 44.552-86.916-1.292-167.058-50.538-211.812-128.38-90.304-156.698-23.126-388.84 64.89-515.926 43.008-62.204 94.292-132.076 161.626-129.58 64.842 2.588 89.362 41.958 167.756 41.958s100.428-41.958 169.050-40.67c69.774 1.296 113.982 63.398 156.692 125.796 49.39 72.168 69.726 142.038 70.924 145.626-1.548 0.706-136.060 52.236-137.408 207.134zM662.562 796.478c35.738 43.358 59.86 103.512 53.28 163.522-51.478-2.096-113.878-34.29-150.81-77.55-33.142-38.376-62.148-99.626-54.374-158.436 57.466-4.484 116.128 29.204 151.904 72.464z" />
<glyph unicode="&#xeac0;" glyph-name="android" d="M896 576c-35.2 0-64-28.8-64-64v-256c0-35.2 28.8-64 64-64s64 28.8 64 64v256c0 35.2-28.8 64-64 64zM128 576c-35.2 0-64-28.8-64-64v-256c0-35.2 28.8-64 64-64s64 28.8 64 64v256c0 35.2-28.802 64-64 64zM224 224c0-53.020 42.98-96 96-96v0-128c0-35.2 28.8-64 64-64s64 28.8 64 64v128h128v-128c0-35.2 28.8-64 64-64s64 28.8 64 64v128c53.020 0 96 42.98 96 96v352h-576v-352zM798.216 639.998c-9.716 87.884-59.004 163.792-129.62 209.646l32.024 64.046c7.904 15.806 1.496 35.028-14.31 42.932s-35.030 1.496-42.932-14.312l-32.142-64.286-8.35 3.316c-28.568 9.502-59.122 14.66-90.886 14.66-31.762 0-62.316-5.158-90.888-14.656l-8.348-3.316-32.142 64.282c-7.904 15.808-27.128 22.212-42.932 14.312-15.808-7.904-22.214-27.126-14.312-42.932l32.022-64.046c-70.616-45.852-119.904-121.762-129.622-209.644v-32h574.222v31.998h-1.784zM416 704c-17.674 0-32 14.328-32 32 0 17.648 14.288 31.958 31.93 31.996 0.032 0 0.062-0.002 0.094-0.002 0.018 0 0.036 0.002 0.052 0.002 17.638-0.042 31.924-14.35 31.924-31.996 0-17.672-14.326-32-32-32zM608 704c-17.674 0-32 14.328-32 32 0 17.646 14.286 31.954 31.924 31.996 0.016 0 0.034-0.002 0.050-0.002 0.032 0 0.064 0.002 0.096 0.002 17.64-0.038 31.93-14.348 31.93-31.996 0-17.672-14.326-32-32-32z" />
<glyph unicode="&#xeac5;" glyph-name="skype" d="M425.6 922.6c-1.6 1-3.4 1.8-5 2.6-1.8-0.4-3.4-0.6-5.2-1l10.2-1.6zM36.8 539c-0.4-1.8-0.6-3.6-0.8-5.2 1-1.6 1.6-3.2 2.6-4.8l-1.8 10zM986.8 357.4c0.4 1.8 0.6 3.6 1 5.4-1 1.6-1.6 3.2-2.6 4.8l1.6-10.2zM592-23c1.6-1 3.4-1.8 5-2.6 1.8 0.4 3.6 0.6 5.4 0.8l-10.4 1.8zM987.8 362.8c-0.4-1.8-0.6-3.6-1-5.4l-1.8 10.4c1-1.8 1.8-3.4 2.8-5 5.2 28.8 8 58.2 8 87.6 0 65.2-12.8 128.6-38 188.2-24.4 57.6-59.2 109.4-103.6 153.8s-96.2 79.2-153.6 103.6c-59.6 25.2-123 38-188.2 38-30.8 0-61.6-2.8-91.6-8.6 0 0-0.2 0-0.2 0 1.6-0.8 3.4-1.6 5-2.6l-10.2 1.6c1.8 0.4 3.4 0.6 5.2 1-41.2 21.8-87.4 33.6-134.2 33.6-76.4 0-148.4-29.8-202.4-83.8s-83.8-126-83.8-202.4c0-48.6 12.6-96.6 36-138.8 0.4 1.8 0.6 3.6 0.8 5.2l1.8-10.2c-1 1.6-1.8 3.2-2.6 4.8-4.8-27.4-7.2-55.4-7.2-83.4 0-65.2 12.8-128.6 38-188.2 24.4-57.6 59.2-109.2 103.6-153.6s96.2-79.2 153.8-103.6c59.6-25.2 123-38 188.2-38 28.4 0 56.8 2.6 84.6 7.6-1.6 1-3.2 1.8-5 2.6l10.4-1.8c-1.8-0.4-3.6-0.6-5.4-0.8 42.8-24.2 91.4-37.2 140.8-37.2 76.4 0 148.4 29.8 202.4 83.8s83.8 126 83.8 202.4c-0.2 48.6-12.8 96.6-36.4 139.2zM514.2 154.2c-171.8 0-248.6 84.4-248.6 147.8 0 32.4 24 55.2 57 55.2 73.6 0 54.4-105.6 191.6-105.6 70.2 0 109 38.2 109 77.2 0 23.4-11.6 49.4-57.8 60.8l-152.8 38.2c-123 30.8-145.4 97.4-145.4 160 0 129.8 122.2 178.6 237 178.6 105.8 0 230.4-58.4 230.4-136.4 0-33.4-29-52.8-62-52.8-62.8 0-51.2 86.8-177.6 86.8-62.8 0-97.4-28.4-97.4-69s49.6-53.6 92.6-63.4l113.2-25.2c123.8-27.6 155.2-100 155.2-168 0-105.4-81-184.2-244.4-184.2z" />
<glyph unicode="&#xead1;" glyph-name="pinterest" d="M512 891.6c-245 0-443.6-198.6-443.6-443.6 0-188 117-348.4 282-413-3.8 35-7.4 89 1.6 127.2 8 34.6 52 220.4 52 220.4s-13.2 26.6-13.2 65.8c0 61.6 35.8 107.8 80.2 107.8 37.8 0 56.2-28.4 56.2-62.4 0-38-24.2-95-36.8-147.6-10.6-44.2 22-80.2 65.6-80.2 78.8 0 139.4 83.2 139.4 203.2 0 106.2-76.4 180.4-185.2 180.4-126.2 0-200.2-94.6-200.2-192.6 0-38.2 14.6-79 33-101.2 3.6-4.4 4.2-8.2 3-12.8-3.4-14-10.8-44.2-12.4-50.4-2-8.2-6.4-9.8-14.8-6-55.4 25.8-90 106.8-90 171.8 0 140 101.6 268.4 293 268.4 153.8 0 273.4-109.6 273.4-256.2 0-152.8-96.4-276-230.2-276-45 0-87.2 23.4-101.6 51 0 0-22.2-84.6-27.6-105.4-10-38.6-37-86.8-55.2-116.2 41.6-12.8 85.6-19.8 131.4-19.8 245 0 443.6 198.6 443.6 443.6 0 245.2-198.6 443.8-443.6 443.8z" />
<glyph unicode="&#xead2;" glyph-name="pinterest2" d="M512 960c-282.4 0-512-229.6-512-512s229.6-512 512-512 512 229.6 512 512-229.6 512-512 512zM512 4.4c-45.8 0-89.8 7-131.4 19.8 18 29.4 45.2 77.8 55.2 116.2 5.4 20.8 27.6 105.4 27.6 105.4 14.4-27.6 56.8-51 101.6-51 133.8 0 230.2 123 230.2 276 0 146.6-119.6 256.2-273.4 256.2-191.4 0-293-128.6-293-268.4 0-65 34.6-146 90-171.8 8.4-4 12.8-2.2 14.8 6 1.4 6.2 9 36.2 12.4 50.4 1 4.4 0.6 8.4-3 12.8-18.4 22.2-33 63.2-33 101.2 0 97.8 74 192.6 200.2 192.6 109 0 185.2-74.2 185.2-180.4 0-120-60.6-203.2-139.4-203.2-43.6 0-76.2 36-65.6 80.2 12.6 52.8 36.8 109.6 36.8 147.6 0 34-18.2 62.4-56.2 62.4-44.6 0-80.2-46-80.2-107.8 0-39.2 13.2-65.8 13.2-65.8s-44-185.8-52-220.4c-9-38.4-5.4-92.2-1.6-127.2-165 64.4-282 224.8-282 412.8 0 245 198.6 443.6 443.6 443.6s443.6-198.6 443.6-443.6c0-245-198.6-443.6-443.6-443.6z" />
<glyph unicode="&#xead3;" glyph-name="pinterest21" d="M512 960c-282.4 0-512-229.6-512-512s229.6-512 512-512 512 229.6 512 512-229.6 512-512 512zM512 4.4c-45.8 0-89.8 7-131.4 19.8 18 29.4 45.2 77.8 55.2 116.2 5.4 20.8 27.6 105.4 27.6 105.4 14.4-27.6 56.8-51 101.6-51 133.8 0 230.2 123 230.2 276 0 146.6-119.6 256.2-273.4 256.2-191.4 0-293-128.6-293-268.4 0-65 34.6-146 90-171.8 8.4-4 12.8-2.2 14.8 6 1.4 6.2 9 36.2 12.4 50.4 1 4.4 0.6 8.4-3 12.8-18.4 22.2-33 63.2-33 101.2 0 97.8 74 192.6 200.2 192.6 109 0 185.2-74.2 185.2-180.4 0-120-60.6-203.2-139.4-203.2-43.6 0-76.2 36-65.6 80.2 12.6 52.8 36.8 109.6 36.8 147.6 0 34-18.2 62.4-56.2 62.4-44.6 0-80.2-46-80.2-107.8 0-39.2 13.2-65.8 13.2-65.8s-44-185.8-52-220.4c-9-38.4-5.4-92.2-1.6-127.2-165 64.4-282 224.8-282 412.8 0 245 198.6 443.6 443.6 443.6s443.6-198.6 443.6-443.6c0-245-198.6-443.6-443.6-443.6z" />
<glyph unicode="&#xead4;" glyph-name="pinterest22" d="M512 960c-282.4 0-512-229.6-512-512s229.6-512 512-512 512 229.6 512 512-229.6 512-512 512zM512 4.4c-45.8 0-89.8 7-131.4 19.8 18 29.4 45.2 77.8 55.2 116.2 5.4 20.8 27.6 105.4 27.6 105.4 14.4-27.6 56.8-51 101.6-51 133.8 0 230.2 123 230.2 276 0 146.6-119.6 256.2-273.4 256.2-191.4 0-293-128.6-293-268.4 0-65 34.6-146 90-171.8 8.4-4 12.8-2.2 14.8 6 1.4 6.2 9 36.2 12.4 50.4 1 4.4 0.6 8.4-3 12.8-18.4 22.2-33 63.2-33 101.2 0 97.8 74 192.6 200.2 192.6 109 0 185.2-74.2 185.2-180.4 0-120-60.6-203.2-139.4-203.2-43.6 0-76.2 36-65.6 80.2 12.6 52.8 36.8 109.6 36.8 147.6 0 34-18.2 62.4-56.2 62.4-44.6 0-80.2-46-80.2-107.8 0-39.2 13.2-65.8 13.2-65.8s-44-185.8-52-220.4c-9-38.4-5.4-92.2-1.6-127.2-165 64.4-282 224.8-282 412.8 0 245 198.6 443.6 443.6 443.6s443.6-198.6 443.6-443.6c0-245-198.6-443.6-443.6-443.6z" />
</font>
</defs>
</svg>
